<?xml version="1.0" encoding="utf-8"?>
<!-- Generator: Adobe Illustrator 16.0.0, SVG Export Plug-In . SVG Version: 6.00 Build 0)  -->
<!DOCTYPE svg PUBLIC "-//W3C//DTD SVG 1.1//EN" "http://www.w3.org/Graphics/SVG/1.1/DTD/svg11.dtd">
<svg version="1.1" id="Layer_1" xmlns="http://www.w3.org/2000/svg" xmlns:xlink="http://www.w3.org/1999/xlink" x="0px" y="0px"
	 width="32px" height="32px" viewBox="0 0 32 32" enable-background="new 0 0 32 32" xml:space="preserve">
<path d="M30.006,30.052"/>
<g>
	<path fill="#676767" d="M23.6,20.853c-3.48-1.263-4.594-2.322-4.594-4.599c0-0.252,0.035-0.443,0.096-0.597
		c0.273-0.706,1.053-0.784,1.434-2.825c0.193-1.039,1.267-0.003,1.445-2.371c0-0.941-0.646-1.195-0.646-1.195
		s0.262-1.396,0.363-2.471c0.127-1.341-0.779-4.803-5.613-4.803c-0.021,0-0.041,0.002-0.063,0.002c-0.02,0-0.04-0.002-0.059-0.002
		c-4.835,0-5.74,3.462-5.614,4.803c0.101,1.075,0.362,2.471,0.362,2.471s-0.637,0.238-0.637,1.18
		c0.179,2.368,1.243,1.348,1.438,2.387c0.381,2.041,1.16,2.119,1.434,2.825c0.061,0.153,0.095,0.345,0.095,0.597
		c0,2.276-1.227,3.055-4.594,4.599c-2.02,0.926-3.632,1.622-4.399,3.14v5.953l23.887,0.026l0.025-6.011
		C26.704,22.155,26.308,21.988,23.6,20.853L23.6,20.853z M23.6,20.853"/>
</g>
</svg>
