<?xml version="1.0" encoding="utf-8"?>
<!-- Generator: Adobe Illustrator 16.0.0, SVG Export Plug-In . SVG Version: 6.00 Build 0)  -->
<!DOCTYPE svg PUBLIC "-//W3C//DTD SVG 1.1//EN" "http://www.w3.org/Graphics/SVG/1.1/DTD/svg11.dtd">
<svg version="1.1" id="Layer_1" xmlns="http://www.w3.org/2000/svg" xmlns:xlink="http://www.w3.org/1999/xlink" x="0px" y="0px"
	 width="128px" height="128px" viewBox="0 0 128 128" enable-background="new 0 0 128 128" xml:space="preserve">
<g>
	<rect x="45" y="23" fill="#FFFFFF" width="11" height="6"/>
	<path fill="#FFFFFF" d="M65.485,32H43.175c0,0-4.175-0.406-4.175,4.363V97.38c0,0,0.022,3.62,4.913,3.62H84.46
		c0,0,3.54-0.356,3.54-3.833V55.439L65.485,32z M63.551,81.629c-2.997,0-5.422-2.43-5.422-5.428c0-3.01,5.422-12.507,5.422-12.507
		s5.42,9.509,5.42,12.507S66.552,81.629,63.551,81.629z M83,68.285L64,48.644v-9.538l19,19.443V68.285z"/>
</g>
</svg>
