<?xml version="1.0" encoding="utf-8"?>
<!-- Generator: Adobe Illustrator 16.0.0, SVG Export Plug-In . SVG Version: 6.00 Build 0)  -->
<!DOCTYPE svg PUBLIC "-//W3C//DTD SVG 1.1//EN" "http://www.w3.org/Graphics/SVG/1.1/DTD/svg11.dtd">
<svg version="1.1" id="Layer_1" xmlns="http://www.w3.org/2000/svg" xmlns:xlink="http://www.w3.org/1999/xlink" x="0px" y="0px"
	 width="64px" height="64px" viewBox="0 0 64 64" enable-background="new 0 0 64 64" xml:space="preserve">
<g>
	<path fill="#CBCBCB" d="M32,27.063v-5.354l-7.951,8.043L32,37.706v-5.269C43,32.4,42.674,43,42.674,43h5.373
		C48.047,27.063,32,27.063,32,27.063z"/>
	<path fill="#CBCBCB" d="M32,48.271C21,48.309,21.375,38,21.375,38h-5.373C16.002,54,32,53.646,32,53.646V59l7.998-8.043L32,43.003
		V48.271z"/>
	<path fill="#CBCBCB" d="M49.48,14.694c-0.415-0.035-0.798-0.248-1.046-0.583c-2.391-3.238-6.231-5.236-10.319-5.236
		c-0.26,0-0.521,0.008-0.781,0.024c-0.346,0.021-0.686-0.082-0.962-0.291c-2.486-1.879-5.499-2.897-8.656-2.897
		c-5.654,0-10.673,3.278-13.01,8.243c-0.21,0.443-0.629,0.751-1.114,0.818c-6.233,0.865-11.41,6.231-11.41,12.698
		C2.182,33.764,7,39,13,40.326v-5.177c-3-1.224-5.768-4.185-5.768-7.68c0-4.284,3.667-7.769,7.951-7.769
		c0.217,0,0.52,0.018,0.734,0.034c1.232,0.095,2.396-0.705,2.696-1.903c1.045-4.163,4.791-7.071,9.078-7.071
		c2.449,0,4.779,0.946,6.539,2.664c0.602,0.587,1.462,0.836,2.285,0.665c0.524-0.108,1.063-0.164,1.597-0.164
		c2.998,0,5.679,1.686,6.992,4.4c0.461,0.954,1.471,1.523,2.527,1.415c0.262-0.027,0.524-0.04,0.778-0.04
		c4.283,0,7.931,3.485,7.931,7.769c0,3.495-2.342,6.458-5.342,7.712v5.176C57,39,61.393,33.764,61.393,27.469
		C61.393,20.762,56.052,15.24,49.48,14.694z"/>
</g>
</svg>
