<?xml version="1.0" encoding="utf-8"?>
<!-- Generator: Adobe Illustrator 16.0.0, SVG Export Plug-In . SVG Version: 6.00 Build 0)  -->
<!DOCTYPE svg PUBLIC "-//W3C//DTD SVG 1.1//EN" "http://www.w3.org/Graphics/SVG/1.1/DTD/svg11.dtd">
<svg version="1.1" id="Layer_1" xmlns="http://www.w3.org/2000/svg" xmlns:xlink="http://www.w3.org/1999/xlink" x="0px" y="0px"
	 width="128px" height="128px" viewBox="0 0 128 128" enable-background="new 0 0 128 128" xml:space="preserve">
<path fill="#FFFFFF" d="M47.725,71.223c-2.997,0-5.422-2.43-5.422-5.428c0-3.009,5.422-12.506,5.422-12.506s5.42,9.508,5.42,12.506
	S50.726,71.223,47.725,71.223z M68.82,59.512c0.371,0.45,0.715,0.94,1.001,1.473c0.284,0.536,0.496,1.091,0.658,1.656l18.879-12.027
	L68.82,59.512z M61.241,59.208c-2.596,1.353-3.605,4.557-2.247,7.15c1.355,2.599,4.559,3.605,7.149,2.255
	c2.597-1.353,3.609-4.552,2.254-7.152C67.045,58.863,63.841,57.856,61.241,59.208z M66.973,24.183h-6.434v12.964h6.434V24.183z
	 M60.539,103.368h6.438V90.397h-6.438V103.368z M93.305,61.322v4.94h12.964v-4.94H93.305z M83.791,41.609l1.744,1.748l9.17-9.169
	l-1.751-1.745L83.791,41.609z M83.762,85.758l9.166,9.171l1.748-1.749l-9.167-9.164L83.762,85.758z M50.436,97.686h6.338v-1.124
	V95.45h-6.338v-2.756h6.835v-1.146v-1.15h-9.547v12.971h9.846v-1.155v-1.156h-7.134V97.686z M50.429,37.147v-5.484h5.679v-1.118
	v-1.112h-5.679v-2.949h6.523v-1.152v-1.148h-9.229v12.964h1.358H50.429z"/>
</svg>
