<?xml version="1.0" encoding="utf-8"?>
<!-- Generator: Adobe Illustrator 16.0.0, SVG Export Plug-In . SVG Version: 6.00 Build 0)  -->
<!DOCTYPE svg PUBLIC "-//W3C//DTD SVG 1.1//EN" "http://www.w3.org/Graphics/SVG/1.1/DTD/svg11.dtd">
<svg version="1.1" id="Layer_1" xmlns="http://www.w3.org/2000/svg" xmlns:xlink="http://www.w3.org/1999/xlink" x="0px" y="0px"
	 width="32px" height="32px" viewBox="0 0 32 32" enable-background="new 0 0 32 32" xml:space="preserve">
<path d="M30.006,30.052"/>
<g>
	<g>
		<path fill="#CBCBCB" d="M13.084,23.996c-1.65,0-2.992,1.342-2.992,2.993s1.342,2.993,2.992,2.993c1.654,0,2.994-1.342,2.994-2.993
			S14.738,23.996,13.084,23.996L13.084,23.996z M13.084,23.996"/>
		<path fill="#CBCBCB" d="M23.041,23.996c-1.65,0-2.992,1.342-2.992,2.993s1.342,2.993,2.992,2.993c1.654,0,2.994-1.342,2.994-2.993
			S24.695,23.996,23.041,23.996L23.041,23.996z M23.041,23.996"/>
	</g>
</g>
<g>
	<g>
		<path fill="#55B647" d="M28.456,4.021l-4.688,4.688l-2.188-2.188l-1.563,1.563l3.75,3.75l6.25-6.25L28.456,4.021z M28.456,4.021"
			/>
	</g>
</g>
<polygon fill="#CBCBCB" points="23.769,14.662 19.106,10 10.139,10 8.076,4.002 2,4.04 2,6 6.141,6 10.139,21.983 27.973,21.963 
	30.02,10 28.431,10 "/>
</svg>
