<?xml version="1.0" encoding="utf-8"?>
<!-- Generator: Adobe Illustrator 16.0.0, SVG Export Plug-In . SVG Version: 6.00 Build 0)  -->
<!DOCTYPE svg PUBLIC "-//W3C//DTD SVG 1.1//EN" "http://www.w3.org/Graphics/SVG/1.1/DTD/svg11.dtd">
<svg version="1.1" id="Layer_1" xmlns="http://www.w3.org/2000/svg" xmlns:xlink="http://www.w3.org/1999/xlink" x="0px" y="0px"
	 width="128px" height="128px" viewBox="0 0 128 128" enable-background="new 0 0 128 128" xml:space="preserve">
<g>
	<path fill="#FFFFFF" d="M42,61h13v1H42h-1.063H40v6h0.938H42h13v1H42v21h43V69H72v-1h13h0.875H87v-6h-1.125H85H72v-1h13V38H42V61z
		 M63.551,53.267c0,0,7.023,9.95,7.023,13.829c0,3.876-3.145,7.022-7.023,7.022c-3.878,0-7.023-3.145-7.023-7.022
		C56.527,63.217,63.551,53.267,63.551,53.267z"/>
	<polygon fill="#FFFFFF" points="84.903,29 41.94,29 38,29 38,37 41.94,37 42,37 84.903,37 85,37 89,37 89,29 	"/>
	<polygon fill="#FFFFFF" points="84.903,91 42,91 41.94,91 38,91 38,99 41.94,99 84.903,99 89,99 89,91 85,91 	"/>
</g>
</svg>
