<?xml version="1.0" encoding="utf-8"?>
<!-- Generator: Adobe Illustrator 16.0.0, SVG Export Plug-In . SVG Version: 6.00 Build 0)  -->
<!DOCTYPE svg PUBLIC "-//W3C//DTD SVG 1.1//EN" "http://www.w3.org/Graphics/SVG/1.1/DTD/svg11.dtd">
<svg version="1.1" id="Layer_1" xmlns="http://www.w3.org/2000/svg" xmlns:xlink="http://www.w3.org/1999/xlink" x="0px" y="0px"
	 width="32px" height="32px" viewBox="0 0 32 32" enable-background="new 0 0 32 32" xml:space="preserve">
<circle fill="#CBCBCB" cx="16.044" cy="16.033" r="14"/>
<path d="M30.006,30.052"/>
<path fill="#FFFFFF" d="M21.237,10.018l-0.278-0.266l-0.279,0.266c-0.191,0.183-1.106,1.069-1.995,2.18
	c-1.405-1.702-2.768-3.004-2.768-3.004s-1.27,1.214-2.621,2.827c-0.841-1.026-1.668-1.83-1.85-2.003l-0.279-0.266l-0.279,0.266
	c-0.392,0.373-3.825,3.703-3.825,5.857c0,2.017,1.467,3.69,3.387,4.03c0.809,2.243,2.947,3.849,5.466,3.849
	c2.51,0,4.641-1.591,5.456-3.817c2.068-0.21,3.691-1.941,3.691-4.062C25.063,13.719,21.63,10.391,21.237,10.018z M10.102,17.939
	c0,0.365,0.039,0.721,0.103,1.067c-1.345-0.415-2.331-1.654-2.331-3.132c0-1.404,2.168-3.867,3.294-4.996
	c0.439,0.439,1.036,1.083,1.603,1.787C11.401,14.392,10.102,16.423,10.102,17.939z M16.063,18.517h-1.054v-0.843h1.054V18.517z
	 M16,17.109V17h-1v0.036c0-0.815,1.143-0.956,1.143-1.44c0-0.309-0.229-0.416-0.489-0.416c-0.195,0-0.41,0.057-0.596,0.152
	l-0.185-0.608c0.299-0.141,0.681-0.253,1.097-0.253c0.697,0,1.222,0.242,1.222,1.058C17.191,16.249,16,16.575,16,17.109z
	 M21.616,19.102c0.075-0.377,0.116-0.764,0.116-1.162c0-1.463-1.208-3.404-2.521-5.089c0.607-0.776,1.271-1.494,1.749-1.974
	c1.127,1.129,3.293,3.592,3.293,4.996C24.253,17.466,23.118,18.796,21.616,19.102z"/>
</svg>
