<?xml version="1.0" encoding="utf-8"?>
<!-- Generator: Adobe Illustrator 16.0.0, SVG Export Plug-In . SVG Version: 6.00 Build 0)  -->
<!DOCTYPE svg PUBLIC "-//W3C//DTD SVG 1.1//EN" "http://www.w3.org/Graphics/SVG/1.1/DTD/svg11.dtd">
<svg version="1.1" id="Layer_1" xmlns="http://www.w3.org/2000/svg" xmlns:xlink="http://www.w3.org/1999/xlink" x="0px" y="0px"
	 width="32px" height="32px" viewBox="0 0 32 32" enable-background="new 0 0 32 32" xml:space="preserve">
<path d="M30.006,30.052"/>
<g>
	<path fill="#CBCBCB" d="M30.587,19.329h0.476v-0.476v-5.548V12.83h-0.476h-3.775c-0.222-0.76-0.524-1.495-0.902-2.192l2.665-2.666
		l0.337-0.336L28.574,7.3l-3.922-3.923L24.315,3.04l-0.336,0.337l-2.676,2.675c-0.662-0.354-1.355-0.642-2.07-0.857V1.477V1.001
		h-0.477H13.21h-0.477v0.476v3.718c-0.678,0.205-1.338,0.474-1.967,0.803l-2.621-2.62L7.81,3.04L7.473,3.377L3.551,7.299
		L3.214,7.636l0.337,0.336l2.563,2.563c-0.379,0.682-0.685,1.397-0.912,2.137H1.538H1.063v0.476v5.548v0.476h0.476h3.617
		c0.232,0.796,0.554,1.566,0.959,2.295l-2.563,2.563l-0.337,0.336l0.337,0.336l3.922,3.923l0.337,0.337l0.336-0.337l2.62-2.619
		c0.676,0.354,1.39,0.638,2.126,0.847v3.673V31h0.477h5.547h0.477v-0.476v-3.767c0.659-0.209,1.3-0.48,1.912-0.809l2.676,2.675
		l0.336,0.336l0.337-0.336l3.922-3.923l0.337-0.336l-0.337-0.336l-2.665-2.666c0.353-0.651,0.64-1.333,0.856-2.034H30.587
		L30.587,19.329z M22.72,16.001c0,3.714-3.021,6.736-6.737,6.736c-3.714,0-6.736-3.022-6.736-6.736c0-3.715,3.022-6.736,6.736-6.736
		C19.698,9.265,22.72,12.286,22.72,16.001z"/>
</g>
</svg>
