<?xml version="1.0" encoding="utf-8"?>
<!-- Generator: Adobe Illustrator 16.0.0, SVG Export Plug-In . SVG Version: 6.00 Build 0)  -->
<!DOCTYPE svg PUBLIC "-//W3C//DTD SVG 1.1//EN" "http://www.w3.org/Graphics/SVG/1.1/DTD/svg11.dtd">
<svg version="1.1" id="Layer_1" xmlns="http://www.w3.org/2000/svg" xmlns:xlink="http://www.w3.org/1999/xlink" x="0px" y="0px"
	 width="128px" height="128px" viewBox="0 0 128 128" enable-background="new 0 0 128 128" xml:space="preserve">
<g>
	<path fill="#FFFFFF" d="M90.773,35.521v29.876h-7.262V60.46c1.022-1.515,1.572-3.412,1.572-5.503c0-3.334-1.357-6.203-3.924-7.71
		c-0.732-6.107-4.021-10.586-8.084-10.586H55.016c-4.066,0-7.354,4.479-8.09,10.586c-2.567,1.505-3.924,4.376-3.924,7.71
		c0,2.091,0.557,3.988,1.574,5.503v4.936h-7.219V35.521h-5.332v56.672h5.332V69.404h21.022v-4.008H53.16v-1.595h21.775v1.595h-5.225
		v4.016h20.99v22.78h5.363V35.521H90.773z M50.273,57.831c-1.546,0-2.801-1.284-2.801-2.874s1.256-2.875,2.801-2.875
		c1.556,0,2.807,1.285,2.807,2.875S51.824,57.831,50.273,57.831z M51.279,46.111c-0.561,0-1.072,0.068-1.572,0.147
		c0.807-4.011,2.91-6.963,5.312-6.963H73.08c2.402,0,4.501,2.952,5.308,6.963c-0.263-0.045-0.552-0.058-0.833-0.08
		c0-0.023,0.006-0.046,0.006-0.07c0-2.534-2.008-4.597-4.484-4.597c-2.473,0-4.484,2.061-4.484,4.597L51.279,46.111L51.279,46.111z
		 M72.188,57.514H55.898c-0.478,0-0.857-0.396-0.857-0.88c0-0.487,0.385-0.88,0.857-0.88h16.289c0.479,0,0.856,0.394,0.856,0.88
		C73.047,57.118,72.666,57.514,72.188,57.514z M72.188,54.997H55.898c-0.478,0-0.857-0.394-0.857-0.881
		c0-0.484,0.385-0.878,0.857-0.878h16.289c0.479,0,0.856,0.394,0.856,0.878C73.047,54.604,72.666,54.997,72.188,54.997z
		 M70.312,46.111c0-1.564,1.243-2.837,2.769-2.837c1.528,0,2.769,1.273,2.769,2.837H70.312z M77.816,57.831
		c-1.551,0-2.806-1.284-2.806-2.874s1.259-2.875,2.806-2.875c1.545,0,2.802,1.285,2.802,2.875
		C80.621,56.547,79.363,57.831,77.816,57.831z"/>
</g>
</svg>
