<?xml version="1.0" encoding="utf-8"?>
<!-- Generator: Adobe Illustrator 16.0.0, SVG Export Plug-In . SVG Version: 6.00 Build 0)  -->
<!DOCTYPE svg PUBLIC "-//W3C//DTD SVG 1.1//EN" "http://www.w3.org/Graphics/SVG/1.1/DTD/svg11.dtd">
<svg version="1.1" id="Layer_1" xmlns="http://www.w3.org/2000/svg" xmlns:xlink="http://www.w3.org/1999/xlink" x="0px" y="0px"
	 width="32px" height="32px" viewBox="0 0 32 32" enable-background="new 0 0 32 32" xml:space="preserve">
<rect x="29.971" y="29.972" fill="#F1F1F2" width="2" height="2.001"/>
<path d="M30.006,30.052"/>
<path fill="#676767" d="M4.708,11.909c0,3.024,1.18,5.869,3.321,8.009l-1.848,1.848c-2.636-2.633-4.087-6.134-4.087-9.856
	s1.449-7.225,4.083-9.854l1.849,1.848C5.886,6.039,4.708,8.884,4.708,11.909z M12.027,7.903L10.18,6.056
	C8.618,7.62,7.757,9.7,7.757,11.909c0,2.212,0.861,4.29,2.427,5.852l1.848-1.848c-1.072-1.068-1.66-2.49-1.66-4.005
	C10.37,10.398,10.959,8.976,12.027,7.903z M25.884,2.051l-1.849,1.848c2.143,2.141,3.321,4.985,3.321,8.011
	c0,3.024-1.178,5.869-3.315,8.009l1.848,1.848c2.633-2.633,4.081-6.134,4.081-9.856C29.97,8.183,28.52,4.682,25.884,2.051z
	 M16.032,9.296c-1.442,0-2.613,1.17-2.613,2.613c0,0.966,0.529,1.799,1.307,2.25v15.767h2.613V14.161
	c0.777-0.453,1.307-1.286,1.307-2.252C18.646,10.466,17.477,9.296,16.032,9.296z M21.882,6.057l-1.848,1.847
	c1.07,1.072,1.66,2.495,1.66,4.006c0,1.514-0.588,2.936-1.656,4.004l1.847,1.849c1.563-1.563,2.423-3.641,2.423-5.853
	S23.447,7.621,21.882,6.057z"/>
</svg>
