<?xml version="1.0" encoding="utf-8"?>
<!-- Generator: Adobe Illustrator 16.0.0, SVG Export Plug-In . SVG Version: 6.00 Build 0)  -->
<!DOCTYPE svg PUBLIC "-//W3C//DTD SVG 1.1//EN" "http://www.w3.org/Graphics/SVG/1.1/DTD/svg11.dtd">
<svg version="1.1" id="Layer_1" xmlns="http://www.w3.org/2000/svg" xmlns:xlink="http://www.w3.org/1999/xlink" x="0px" y="0px"
	 width="430px" height="165px" viewBox="0 0 430 165" enable-background="new 0 0 430 165" xml:space="preserve">
<g>
	<g>
		<g>
			<path fill="#005238" d="M79.371,147.31c2.345,0,4.119,0.611,5.277,1.951c1.148,1.255,1.727,2.983,1.727,5.178
				c0,2.435-0.605,4.307-1.824,5.643c-1.226,1.307-2.999,1.99-5.286,1.99h-3.04V147.31H79.371z M77.821,148.553v12.299h1.193
				c1.76,0,3.132-0.562,4.145-1.638c0.989-1.08,1.49-2.684,1.49-4.83c0-1.873-0.468-3.274-1.399-4.3
				c-0.949-0.995-2.341-1.534-4.199-1.534h-1.229V148.553z"/>
			<path fill="#005238" d="M96.895,148.622h-6.295v5.037h5.022v1.217h-5.022v5.902h6.572v1.293H89V147.31h7.892v1.313H96.895z"/>
			<g>
				<path fill="#005238" d="M98.708,160.208c1.383,1.46,2.892,2.079,5.093,2.079c2.244,0,4.866-1.115,4.866-4.164
					c0-2.888-1.9-3.445-4.415-4.456c-2.816-1.183-3.611-1.839-3.611-3.187c0-1.236,1.283-2.174,3.03-2.174
					c1.436,0,2.254,0.445,3.44,1.456l0.928-1.049c-1.218-1.255-2.454-1.829-4.398-1.829c-2.234,0-4.618,1.176-4.618,3.754
					c0,2.345,1.618,3.407,4.257,4.426c2.873,1.073,3.713,1.661,3.713,3.271c0,1.634-1.194,2.622-3.179,2.622
					c-1.449,0-2.638-0.585-3.884-1.856L98.708,160.208z"/>
			</g>
			<path fill="#005238" d="M113.947,147.31c2.352,0,4.105,0.611,5.257,1.951c1.179,1.255,1.747,2.983,1.747,5.178
				c0,2.435-0.598,4.307-1.854,5.643c-1.212,1.307-2.961,1.99-5.25,1.99h-3.039V147.31H113.947z M112.4,148.553v12.299h1.196
				c1.757,0,3.133-0.562,4.12-1.638c0.993-1.08,1.487-2.684,1.487-4.83c0-1.873-0.462-3.274-1.396-4.3
				c-0.932-0.995-2.321-1.534-4.175-1.534H112.4V148.553z"/>
			<path fill="#005238" d="M131.476,148.622h-6.294v5.037h5.044v1.217h-5.044v5.902h6.56v1.293h-8.156V147.31h7.894v1.313H131.476z"
				/>
			<path fill="#005238" d="M147.333,160.782v-11.778l-2.799,1.426l0.007-1.549l3.069-1.571h1.316v13.477h2.478v1.288h-6.769v-1.288
				h2.698V160.782z"/>
			<path fill="#005238" d="M160.735,154.069c2.188,0.924,3.454,1.932,3.454,3.993c0,2.953-2.048,4.225-4.957,4.225
				c-3.009,0-4.889-1.382-4.889-4.249c0-1.691,0.968-2.998,3.048-4.105c-1.456-0.731-2.618-1.53-2.618-3.417
				c0-2.476,2.18-3.638,4.448-3.638c2.314,0,4.462,1.193,4.462,3.716C163.688,152.627,162.005,153.649,160.735,154.069z
				 M158.452,154.626c-1.357,0.753-2.543,1.434-2.543,3.412c0,1.907,1.518,2.949,3.377,2.949c2.104,0,3.339-1.104,3.339-2.884
				C162.625,155.731,159.944,155.068,158.452,154.626z M159.436,153.499c1.226-0.522,2.726-1.542,2.726-2.796
				c0-1.528-1.199-2.499-2.936-2.499c-1.649,0-2.93,0.876-2.93,2.379C156.296,152.306,158.247,153.052,159.436,153.499z"/>
			<path fill="#005238" d="M166.923,160.355c1.063,0.475,1.743,0.587,2.565,0.587c2.464,0,3.557-2.142,3.909-5.3
				c-0.612,0.611-2.036,1.066-3.08,1.066c-2.96,0-4.696-1.805-4.696-4.731c0-2.666,1.459-5.1,5.06-5.1
				c3.018,0,4.512,2.338,4.512,6.412c0,6.174-1.995,8.989-6.012,8.989c-0.935,0-1.913-0.137-2.808-0.499L166.923,160.355z
				 M167.207,151.944c0,1.988,1.043,3.39,3.21,3.39c1.252,0.018,2.309-0.307,3.026-1.261c0.47-2.848-0.444-5.767-2.985-5.767
				C168.511,148.301,167.207,149.691,167.207,151.944z"/>
			<path fill="#005238" d="M181.605,162.287c-1.596,0-2.765-0.671-3.521-1.99c-0.771-1.313-1.142-3.305-1.142-5.885
				c0-2.263,0.381-4.061,1.169-5.395c0.784-1.429,1.974-2.14,3.57-2.14c1.501,0,2.681,0.646,3.483,1.894
				c0.801,1.204,1.199,3.206,1.199,5.917c0,2.604-0.408,4.522-1.236,5.745C184.304,161.661,183.118,162.287,181.605,162.287z
				 M181.679,160.95c1.015,0,1.767-0.492,2.247-1.477c0.507-0.953,0.751-2.697,0.751-5.232c0-1.761-0.188-3.146-0.574-4.307
				c-0.388-1.095-1.192-1.621-2.428-1.621c-1.208,0-2.023,0.523-2.435,1.634c-0.414,1.18-0.613,2.643-0.607,4.484
				c0,2.557,0.243,4.296,0.747,5.165C179.875,160.502,180.643,160.95,181.679,160.95z"/>
		</g>
		<g>
			
				<linearGradient id="SVGID_1_" gradientUnits="userSpaceOnUse" x1="413.2646" y1="-148.2959" x2="413.2646" y2="-267.2681" gradientTransform="matrix(1 0 0 -1 -282 -205)">
				<stop  offset="0" style="stop-color:#00B6E8"/>
				<stop  offset="1" style="stop-color:#D4EFFC"/>
			</linearGradient>
			<path fill="url(#SVGID_1_)" d="M131.272,2.713C61.591,2.713,5,32.502,5,70.063c0,37.57,56.591,67.361,126.272,67.361
				c69.684,0,126.259-29.791,126.259-67.361C257.531,32.502,200.956,2.713,131.272,2.713z"/>
			<g>
				<g>
					<path fill="#00A851" d="M33.721,63.982c0.044-0.076,1.747-2.932,4.305-6.613c0.21,0.091,0.417,0.191,0.599,0.321l6.622,4.429
						c0.19,0.857,0.398,1.764,0.615,2.731l1.386,6.042c0,0,0.313-2.796,1.135-6.677l5.59,3.734c-0.6,8.412-1.022,15.58-1.313,21.691
						l-36.933,0.472c-3.55-5.452-5.684-11.223-6.202-17.204l11.549-7.729l11.19-7.486c0.21-0.145,0.441-0.262,0.671-0.371
						c-0.427,3.393-0.444,6.078-0.444,6.335v2.381L33.721,63.982z"/>
					<path fill="#00A851" d="M86.769,71.315c-0.311,5.064-0.584,10.984-0.716,17.403c-6.812,0.123-12.834,0.355-17.637,0.73
						l-4.611,0.059c-0.107-3.318-0.218-5.701-0.233-6.33c-0.048-3.087-0.125-6.058-0.221-8.907l16.258,10.958
						c0.728,0.496,2.201,0.995,3.102,0.995l-7.34-5.398C77.152,79.739,81.438,76.086,86.769,71.315z"/>
					<path fill="#00A851" d="M99.412,71.303c0.027-0.054,2.011-3.359,4.255-5.853l0.176,0.262l-0.229,0.291
						c-0.783,1.131-0.444,2.629,0.243,5.621l0.498,2.204c0,0,0.304-2.67,1.217-5.388l0.533,0.902
						c-0.18,6.285-0.082,14.554-0.012,19.242c-4.406-0.006-8.677,0.007-12.749,0.038c-0.066-6.911-0.183-15.367-0.4-22.918
						c0.718-0.658,1.453-1.332,2.181-2.01c1.499,4.527,1.991,8.92,1.991,8.92l0.851-3.746c0.34-1.477,0.624-2.732,0.829-3.829
						c0.928-0.678,2.03-1.429,3.158-2.053l0.104,0.149c-0.405,0.265-0.759,0.535-1.042,0.788c-2.03,1.841-2.051,7.041-2.051,7.258
						v0.875L99.412,71.303z"/>
					<path fill="#00A851" d="M158.484,65.999l-0.224-0.29l0.17-0.263c2.254,2.493,4.228,5.803,4.257,5.853l0.448,0.749v-0.875
						c0-0.218-0.026-5.418-2.054-7.258c-0.28-0.254-0.634-0.523-1.037-0.788l0.105-0.15c1.126,0.626,2.225,1.375,3.153,2.055
						c0.21,1.091,0.494,2.347,0.825,3.823l0.851,3.747c0,0,0.41-3.62,1.607-7.674c0.878,0.711,1.75,1.423,2.601,2.114
						c-0.116,3.844-0.227,7.644-0.27,9.493c-0.042,1.967-0.181,7.122-0.291,12.32c-3.958,0.023-8.129,0.03-12.443,0.02
						c0.099-4.685,0.029-13.08-0.241-19.448l0.587-0.995c0.908,2.72,1.205,5.39,1.205,5.39l0.511-2.204
						C158.925,68.632,159.272,67.131,158.484,65.999"/>
					<path fill="#00A851" d="M182.816,82.74l15.42-10.401c-0.073,3.433-0.146,7.046-0.2,10.836c-0.024,1.531-0.051,3.008-0.077,4.45
						c-0.612,0.055-1.232,0.112-1.841,0.184c-4.742,0.524-11.522,0.808-19.558,0.954c-0.077-6.064-0.347-11.542-0.69-16.271
						l0.008,0.007c0.692,0.57,1.357,1.103,1.984,1.612c2.789,2.265,4.926,4.002,6.051,4.919l0.271,0.214
						c0.264,0.21,0.438,0.363,0.533,0.438l0.077,0.063l0.154,0.128h0.013l-5.25,3.87C180.61,83.733,182.076,83.232,182.816,82.74"/>
					<path fill="#00A851" d="M208.111,65.692l0.01-0.004l5.147-3.443c1.155,4.883,1.586,8.65,1.586,8.65l1.375-6.041
						c0.465-2.037,0.868-3.811,1.182-5.382l5.53-3.7c3.18,4.42,5.388,8.123,5.442,8.21l1.216,2.048v-2.379
						c0-0.327-0.007-4.491-0.868-9.083c0.514,0.146,0.999,0.35,1.412,0.637l11.201,7.488l11.784,7.891
						c-0.082,5.632-1.612,11.078-4.382,16.272c-4.549,0.416-11.272,0.208-17.835,0.058c-6.336-0.172-13.6-0.325-21.341-0.058
						C209.198,80.847,208.716,73.841,208.111,65.692"/>
					<path fill="#00A851" d="M144.678,55.86c0.044,0,4.199,0.16,6.232,2.004c-1.253-0.66-2.745-1.122-3.514-1.122
						c-1.813,0-6.3,3.276-6.492,3.417l-0.978,0.721l1.177-0.295c0.038-0.007,3.877-0.948,7.047-0.948
						c0.417,0,0.802,0.018,1.156,0.045l-0.28-0.004c-1.801,0-3.551,0.303-4.262,0.743c-1.786,1.092-3.57,6.069-3.644,6.279
						l-0.304,0.868l0.689-0.609c0.049-0.049,4.588-4.015,8.028-5.071c-1.299,0.545-2.628,1.348-3.391,2.037
						c-2.033,1.841-2.047,7.041-2.047,7.258v0.875l0.441-0.748c0.037-0.067,3.414-5.712,6.366-7.787
						c-0.651,0.619-1.446,1.473-2.16,2.484c-0.786,1.131-0.448,2.628,0.236,5.62l0.502,2.206c0,0,0.586-5.209,2.615-8.474
						c-0.275,2.845-0.545,5.635-1.236,23.513c-6.089-0.038-12.381-0.085-18.703-0.14c-7.193-0.055-14.413-0.112-21.388-0.137
						c-0.718-18.281-0.994-20.859-1.295-24.02c2.461,3.139,3.143,9.257,3.143,9.257l0.511-2.206c0.675-2.992,1.022-4.493,0.228-5.62
						c-0.714-1.016-1.509-1.865-2.153-2.484c2.951,2.075,6.321,7.72,6.368,7.787l0.448,0.748v-0.875
						c0-0.217-0.027-5.417-2.047-7.258c-0.768-0.689-2.101-1.492-3.399-2.037c3.44,1.057,7.984,5.022,8.033,5.071l0.69,0.609
						l-0.304-0.868c-0.077-0.214-1.859-5.191-3.64-6.279c-0.718-0.437-2.478-0.743-4.277-0.743h-0.273
						c0.357-0.027,0.74-0.044,1.155-0.044c3.158,0,7.01,0.941,7.049,0.948l1.172,0.294l-0.979-0.721
						c-0.19-0.141-4.674-3.417-6.486-3.417c-0.781,0-2.265,0.462-3.519,1.123c2.033-1.841,6.181-2.005,6.234-2.005l1.213-0.039
						l-1.14-0.429c-0.126-0.043-3.028-1.107-5.229-1.107c-0.751,0-1.343,0.134-1.764,0.39c-0.49,0.294-0.854,0.702-1.165,1.169
						c-0.578-1.222-1.253-2.479-1.971-3.56c8.924-8.406,16.184-15.373,16.184-15.373c3.349-3.499,5.373-3.122,8.036-1.004l0,0h0.007
						l0.046,0.039l21.905,18.348c-0.28,0.509-0.538,1.035-0.791,1.546c-0.3-0.467-0.671-0.875-1.159-1.169
						c-0.415-0.256-1.013-0.39-1.764-0.39c-2.197,0-5.109,1.065-5.236,1.106l-1.133,0.43L144.678,55.86"/>
				</g>
				<path fill="#00A851" d="M122.43,88.657c3.231,0.027,6.482,0.054,9.724,0.071C128.913,88.698,125.662,88.678,122.43,88.657"/>
			</g>
			<g>
				<path fill="#94C947" d="M164.126,130.363l-5.761-9.584c-0.207-0.366-0.038-0.65,0.368-0.65h2.915
					c0.41,0,0.543-0.272,0.305-0.598l-1.672-2.382c-0.26-0.321-0.805-0.578-1.218-0.578h-2.377c-0.409,0-0.905-0.294-1.112-0.646
					l-3.791-6.587c-0.206-0.352-0.039-0.643,0.375-0.643h1.84c0.096-1.056-1.49-2.97-1.49-2.97
					c-0.245-0.325-0.487-0.588-0.528-0.588c-0.046,0-0.414,0-0.827,0h-1.042c-2.862-1.716-4.231-6.077-4.231-6.077
					c-0.213-0.349-0.043-0.643,0.364-0.643l1.964-0.045c0.41,0,1.669-0.235,1.452-0.581l-1.523-2.314
					c-0.224-0.345-0.44-0.624-0.497-0.624c-0.044,0-0.424,0-0.833,0c0,0-2.961,0.105-3.72-0.64c0,0-2.213-1.982-1.065-3.527
					l8.933,0.353c0.171,0.769,0.605,1.612,1.644,1.705c1.911,0.178,3.459-0.294,3.511-1.278c0.01-0.144,0.015-0.287,0.029-0.451
					l12.46-0.465c-0.113,6.022-0.15,12.093,0.084,12.434c2.054,2.878,7.896,2.083,7.752-1.92c0.109-3.514,0.146-7.325,0.133-10.552
					l21.337-0.099c-0.4,19.755-1.101,28.854-0.144,32.381c-10.229,3.459-21.52,6.152-33.559,7.889
					C164.179,130.534,164.151,130.404,164.126,130.363z"/>
				<path fill="#94C947" d="M100.23,120.129h2.982c0.41,0,0.574,0.284,0.367,0.65l-5.978,9.803
					c-12.597-1.863-24.37-4.769-34.937-8.512c1.71-6.726,1.463-22.011,1.189-30.983l22.159-0.105
					C85.96,94.42,86,98.341,86.05,101.959c1.063,2.94,7.314,2.578,7.415,0.861c0,0-0.044-5.14-0.094-11.873l12.764-0.068
					c0.091,0.937,0.535,1.925,3.153,1.593c1.243-0.171,1.53-1.025,1.576-1.62l9.576-0.041c0.186,0.267,0.227,0.771,0.077,1.015
					l-1.4,2.396c-0.2,0.358-0.704,0.639-1.113,0.639h-3.108c-0.408,0-0.924,0.281-1.148,0.626l-1.518,2.313
					c-0.217,0.345-0.07,0.626,0.339,0.626h3.353c0.414,0,0.582,0.287,0.368,0.643l-3.181,5.431
					c-0.203,0.353-0.707,0.646-1.114,0.646h-1.431c-0.407,0-0.942,0.266-1.183,0.594l-1.796,2.376
					c-0.241,0.324-0.106,0.592,0.297,0.592h2.026c0.405,0,0.571,0.287,0.368,0.642l-3.854,6.597
					c-0.207,0.343-0.71,0.637-1.116,0.637h-2.661c-0.405,0-0.924,0.272-1.158,0.615l-1.571,2.323
					C99.667,119.856,99.824,120.129,100.23,120.129z"/>
				<path fill="#94C947" d="M140.654,98.426c0.407,0,0.911,0.293,1.111,0.643l3.968,6.269c0.197,0.354,0.031,0.642-0.374,0.642
					l-27.755-0.833c-0.409,0-0.574-0.294-0.368-0.646l3.186-5.431c0.209-0.355,0.707-0.643,1.116-0.643H140.654z"/>
				<path fill="#94C947" d="M122.693,95.186l1.971-3.357c0.203-0.352,0.704-0.628,1.109-0.628h10.724
					c0.403,0,0.907,0.284,1.114,0.639l1.297,3.063c0.204,0.353,0.033,0.64-0.374,0.64l-15.469,0.287
					C122.652,95.821,122.486,95.534,122.693,95.186z"/>
				<path fill="#94C947" d="M109.999,116.469l4.406-7.127c0.207-0.354,0.707-0.642,1.114-0.642h31.049
					c0.415,0,0.912,0.29,1.112,0.642l3.794,6.591c0.201,0.348,0.031,0.632-0.374,0.615l-40.73,0.574
					C109.96,117.115,109.796,116.821,109.999,116.469z"/>
				<path fill="#94C947" d="M16.552,91.323l36.037-0.178c-0.584,13.104-0.546,21.313,0.164,27.032
					C36.506,111.089,23.886,101.86,16.552,91.323z"/>
				<path fill="#94C947" d="M101.242,131.094l6.472-10.314c0.207-0.366,0.709-0.65,1.116-0.644l44.397,0.127
					c0.417,0.003,1.533,0.308,1.736,0.652l5.942,10.228c-9.485,1.23-19.411,1.879-29.63,1.879
					C120.909,133.021,110.854,132.352,101.242,131.094z"/>
				<path fill="#94C947" d="M209.955,118.113c0.749-4.834,0.654-13.522-0.176-27.758l36.996-0.184
					C239.601,101.146,226.709,110.777,209.955,118.113z"/>
			</g>
			<path fill="#005238" d="M131.272,2.713C61.591,2.713,5,32.502,5,70.063c0,37.57,56.591,67.361,126.272,67.361
				c69.684,0,126.259-29.791,126.259-67.361C257.531,32.502,200.956,2.713,131.272,2.713z M164.126,130.363l-5.761-9.584
				c-0.207-0.366-0.038-0.65,0.368-0.65h2.915c0.41,0,0.543-0.272,0.305-0.598l-1.672-2.382c-0.26-0.321-0.805-0.578-1.218-0.578
				h-2.377c-0.409,0-0.905-0.294-1.112-0.646l-3.791-6.587c-0.206-0.352-0.039-0.643,0.375-0.643h1.84
				c0.096-1.056-1.49-2.97-1.49-2.97c-0.245-0.325-0.487-0.588-0.528-0.588c-0.046,0-0.414,0-0.827,0h-1.042
				c-2.862-1.716-4.231-6.077-4.231-6.077c-0.213-0.349-0.043-0.643,0.364-0.643l1.964-0.045c0.41,0,1.669-0.235,1.452-0.581
				l-1.523-2.314c-0.224-0.345-0.44-0.624-0.497-0.624c-0.044,0-0.424,0-0.833,0c0,0-2.961,0.105-3.72-0.64
				c0,0-2.213-1.982-1.065-3.527l8.933,0.353c0.171,0.769,0.605,1.612,1.644,1.705c1.911,0.178,3.459-0.294,3.511-1.278
				c0.01-0.144,0.015-0.287,0.029-0.451l12.46-0.465c-0.113,6.022-0.15,12.093,0.084,12.434c2.054,2.878,7.896,2.083,7.752-1.92
				c0.109-3.514,0.146-7.325,0.133-10.552l21.337-0.099c-0.4,19.755-1.101,28.854-0.144,32.381
				c-10.229,3.459-21.52,6.152-33.559,7.889C164.179,130.534,164.151,130.404,164.126,130.363z M100.23,120.129h2.982
				c0.41,0,0.574,0.284,0.367,0.65l-5.978,9.803c-12.597-1.863-24.37-4.769-34.937-8.512c1.71-6.726,1.463-22.011,1.189-30.983
				l22.159-0.105C85.96,94.42,86,98.341,86.05,101.959c1.063,2.94,7.314,2.578,7.415,0.861c0,0-0.044-5.14-0.094-11.873
				l12.764-0.068c0.091,0.937,0.535,1.925,3.153,1.593c1.243-0.171,1.53-1.025,1.576-1.62l9.576-0.041
				c0.186,0.267,0.227,0.771,0.077,1.015l-1.4,2.396c-0.2,0.358-0.704,0.639-1.113,0.639h-3.108c-0.408,0-0.924,0.281-1.148,0.626
				l-1.518,2.313c-0.217,0.345-0.07,0.626,0.339,0.626h3.353c0.414,0,0.582,0.287,0.368,0.643l-3.181,5.431
				c-0.203,0.353-0.707,0.646-1.114,0.646h-1.431c-0.407,0-0.942,0.266-1.183,0.594l-1.796,2.376
				c-0.241,0.324-0.106,0.592,0.297,0.592h2.026c0.405,0,0.571,0.287,0.368,0.642l-3.854,6.597c-0.207,0.343-0.71,0.637-1.116,0.637
				h-2.661c-0.405,0-0.924,0.272-1.158,0.615l-1.571,2.323C99.667,119.856,99.824,120.129,100.23,120.129z M33.721,63.982
				c0.044-0.076,1.747-2.932,4.305-6.613c0.21,0.091,0.417,0.191,0.599,0.321l6.622,4.429c0.19,0.857,0.398,1.764,0.615,2.731
				l1.386,6.042c0,0,0.313-2.796,1.135-6.677l5.59,3.734c-0.6,8.412-1.022,15.58-1.313,21.691l-36.933,0.472
				c-3.55-5.452-5.684-11.223-6.202-17.204l11.549-7.729l11.19-7.486c0.21-0.145,0.441-0.262,0.671-0.371
				c-0.427,3.393-0.444,6.078-0.444,6.335v2.381L33.721,63.982z M49.033,61.425c1.28-5.177,3.398-11.371,6.67-15.647
				c-0.598,7.094-1.102,13.562-1.533,19.431L49.033,61.425z M74.708,68.323c0.05-0.073,2.716-4.553,5.999-8.516
				c0.193,0.291,0.375,0.564,0.547,0.822c-0.48,1.792,0.074,4.221,0.99,8.231l0.714,3.106c-4.095,4.004-7.193,7.046-8.417,8.242
				l-11.277-8.303c-0.448-11.679-1.243-21.066-2.191-26.512c6.856,8.519,8.76,25.493,8.76,25.493l1.383-6.041
				c0.55-2.408,1.015-4.462,1.352-6.239c1.459-1.115,3.181-2.342,4.924-3.434c0.087,0.121,0.176,0.237,0.267,0.36
				c-0.113,0.088-0.228,0.186-0.327,0.269c-3.43,3.129-3.475,11.939-3.475,12.307v1.48L74.708,68.323z M86.769,71.315
				c-0.311,5.064-0.584,10.984-0.716,17.403c-6.812,0.123-12.834,0.355-17.637,0.73l-4.611,0.059
				c-0.107-3.318-0.218-5.701-0.233-6.33c-0.048-3.087-0.125-6.058-0.221-8.907l16.258,10.958c0.728,0.496,2.201,0.995,3.102,0.995
				l-7.34-5.398C77.152,79.739,81.438,76.086,86.769,71.315z M83.225,71.7c0.364-2.471,1.606-9.438,4.571-13.896
				c-0.226,2.418-0.53,5.918-0.823,10.223C85.653,69.318,84.404,70.545,83.225,71.7z M99.412,71.303
				c0.027-0.054,2.011-3.359,4.255-5.853c0.063,0.091,0.12,0.171,0.176,0.262c-0.079,0.095-0.155,0.193-0.229,0.291
				c-0.783,1.131-0.444,2.629,0.243,5.621l0.498,2.204c0,0,0.304-2.67,1.217-5.388l0.533,0.902
				c-0.18,6.285-0.082,14.554-0.012,19.242c-4.406-0.006-8.677,0.007-12.749,0.038c-0.066-6.911-0.183-15.367-0.4-22.918
				c0.718-0.658,1.453-1.332,2.181-2.01c1.499,4.527,1.991,8.92,1.991,8.92l0.851-3.746c0.34-1.477,0.624-2.732,0.829-3.829
				c0.928-0.678,2.03-1.429,3.158-2.053c0.034,0.052,0.073,0.097,0.104,0.149c-0.405,0.265-0.759,0.535-1.042,0.788
				c-2.03,1.841-2.051,7.041-2.051,7.258v0.875L99.412,71.303z M144.678,55.86c0.044,0,4.199,0.16,6.232,2.004
				c-1.253-0.66-2.745-1.122-3.514-1.122c-1.813,0-6.3,3.276-6.492,3.417l-0.978,0.721l1.177-0.295
				c0.038-0.007,3.877-0.948,7.047-0.948c0.417,0,0.802,0.018,1.156,0.045c-0.101-0.004-0.193-0.004-0.28-0.004
				c-1.801,0-3.551,0.303-4.262,0.743c-1.786,1.092-3.57,6.069-3.644,6.279l-0.304,0.868l0.689-0.609
				c0.049-0.049,4.588-4.015,8.028-5.071c-1.299,0.545-2.628,1.348-3.391,2.037c-2.033,1.841-2.047,7.041-2.047,7.258v0.875
				l0.441-0.748c0.037-0.067,3.414-5.712,6.366-7.787c-0.651,0.619-1.446,1.473-2.16,2.484c-0.786,1.131-0.448,2.628,0.236,5.62
				l0.502,2.206c0,0,0.586-5.209,2.615-8.474c-0.275,2.845-0.545,5.635-1.236,23.513c-6.089-0.038-12.381-0.085-18.703-0.14
				c-7.193-0.055-14.413-0.112-21.388-0.137c-0.718-18.281-0.994-20.859-1.295-24.02c2.461,3.139,3.143,9.257,3.143,9.257
				l0.511-2.206c0.675-2.992,1.022-4.493,0.228-5.62c-0.714-1.016-1.509-1.865-2.153-2.484c2.951,2.075,6.321,7.72,6.368,7.787
				l0.448,0.748v-0.875c0-0.217-0.027-5.417-2.047-7.258c-0.768-0.689-2.101-1.492-3.399-2.037c3.44,1.057,7.984,5.022,8.033,5.071
				l0.69,0.609l-0.304-0.868c-0.077-0.214-1.859-5.191-3.64-6.279c-0.718-0.437-2.478-0.743-4.277-0.743
				c-0.077,0-0.167,0-0.273,0.004c0.357-0.027,0.738-0.045,1.155-0.045c3.158,0,7.01,0.941,7.049,0.948l1.172,0.295l-0.979-0.721
				c-0.19-0.141-4.674-3.417-6.486-3.417c-0.781,0-2.265,0.462-3.519,1.122c2.033-1.84,6.181-2.004,6.234-2.004l1.213-0.04
				l-1.14-0.428c-0.126-0.043-3.028-1.107-5.229-1.107c-0.751,0-1.343,0.132-1.764,0.389c-0.49,0.294-0.854,0.703-1.165,1.17
				c-0.578-1.223-1.253-2.479-1.971-3.561c8.924-8.407,16.184-15.372,16.184-15.372c3.349-3.5,5.373-3.123,8.036-1.005l0,0h0.007
				c0.014,0.019,0.029,0.029,0.046,0.039c0,0,21.795,18.252,21.905,18.348c-0.28,0.51-0.538,1.035-0.791,1.547
				c-0.3-0.467-0.671-0.875-1.159-1.169c-0.415-0.256-1.013-0.39-1.764-0.39c-2.197,0-5.109,1.064-5.236,1.107l-1.133,0.429
				L144.678,55.86z M140.654,98.426c0.407,0,0.911,0.293,1.111,0.643l3.968,6.269c0.197,0.354,0.031,0.642-0.374,0.642
				l-27.755-0.833c-0.409,0-0.574-0.294-0.368-0.646l3.186-5.431c0.209-0.355,0.707-0.643,1.116-0.643H140.654z M122.693,95.186
				l1.971-3.357c0.203-0.352,0.704-0.628,1.109-0.628h10.724c0.403,0,0.907,0.284,1.114,0.639l1.297,3.063
				c0.204,0.353,0.033,0.64-0.374,0.64l-15.469,0.287C122.652,95.821,122.486,95.534,122.693,95.186z M109.999,116.469l4.406-7.127
				c0.207-0.354,0.707-0.642,1.114-0.642h31.049c0.415,0,0.912,0.29,1.112,0.642l3.794,6.591c0.201,0.348,0.031,0.632-0.374,0.615
				l-40.73,0.574C109.96,117.115,109.796,116.821,109.999,116.469z M158.484,65.999c-0.074-0.098-0.154-0.196-0.224-0.29
				c0.056-0.091,0.11-0.171,0.17-0.263c2.254,2.493,4.228,5.803,4.257,5.853l0.448,0.749v-0.875c0-0.218-0.026-5.418-2.054-7.258
				c-0.28-0.254-0.634-0.523-1.037-0.788c0.032-0.047,0.066-0.099,0.105-0.15c1.126,0.626,2.225,1.375,3.153,2.055
				c0.21,1.091,0.494,2.347,0.825,3.823l0.851,3.747c0,0,0.41-3.62,1.607-7.674c0.878,0.711,1.75,1.423,2.601,2.114
				c-0.116,3.844-0.227,7.644-0.27,9.493c-0.042,1.967-0.181,7.122-0.291,12.32c-3.958,0.023-8.129,0.03-12.443,0.02
				c0.099-4.685,0.029-13.08-0.241-19.448l0.587-0.995c0.908,2.72,1.205,5.39,1.205,5.39l0.511-2.204
				C158.925,68.632,159.272,67.131,158.484,65.999z M180.853,60.634c0.167-0.262,0.349-0.535,0.535-0.822
				c3.283,3.959,5.955,8.442,5.999,8.516l0.757,1.27v-1.48c0-0.367-0.039-9.177-3.476-12.306c-0.101-0.083-0.221-0.181-0.325-0.269
				c3.344-4.627,7.719-9.985,11.793-12.856c-1.771,1.709-3.944,4.047-5.889,6.815c-2.17,3.09-1.232,7.185,0.646,15.357l1.369,6.041
				c0,0,1.649-14.641,7.371-23.545c-0.679,5.233-1.073,13.107-1.333,22.705l-12.487,9.198c-3.666-3.183-7.022-6.104-10.098-8.793
				c-0.438-5.427-0.966-9.723-1.357-12.578c3.607,5.519,4.639,14.731,4.639,14.731l0.855-3.744
				C180.769,64.851,181.328,62.422,180.853,60.634z M182.816,82.74l15.42-10.401c-0.073,3.433-0.146,7.046-0.2,10.836
				c-0.024,1.531-0.051,3.008-0.077,4.45c-0.612,0.055-1.232,0.112-1.841,0.184c-4.742,0.524-11.522,0.808-19.558,0.954
				c-0.077-6.064-0.347-11.542-0.69-16.271c0.003,0.003,0.008,0.007,0.008,0.007c0.692,0.57,1.357,1.103,1.984,1.612
				c2.789,2.265,4.926,4.002,6.051,4.919c0.094,0.077,0.188,0.147,0.271,0.214c0.264,0.21,0.438,0.363,0.533,0.438
				c0.051,0.038,0.077,0.063,0.077,0.063c0.044,0.051,0.097,0.098,0.154,0.128c0.007,0,0.01,0,0.013,0l-5.25,3.87
				C180.61,83.733,182.076,83.232,182.816,82.74z M206.626,46.078c2.765,3.741,4.669,8.851,5.951,13.468l-4.666,3.435
				C207.53,57.804,207.096,52.174,206.626,46.078z M208.111,65.692l0.01-0.004l5.147-3.443c1.155,4.883,1.586,8.65,1.586,8.65
				l1.375-6.041c0.465-2.037,0.868-3.811,1.182-5.382l5.53-3.7c3.18,4.42,5.388,8.123,5.442,8.21l1.216,2.048v-2.379
				c0-0.327-0.007-4.491-0.868-9.083c0.514,0.146,0.999,0.35,1.412,0.637l11.201,7.488l11.784,7.891
				c-0.082,5.632-1.612,11.078-4.382,16.272c-4.549,0.416-11.272,0.208-17.835,0.058c-6.336-0.172-13.6-0.325-21.341-0.058
				C209.198,80.847,208.716,73.841,208.111,65.692z M252.931,66.347l-22.213-15.636c-0.797-0.534-1.938-0.698-3.113-0.615
				c-0.813-2.509-1.969-4.799-3.616-6.285c-2.072-1.891-5.729-4.088-9.267-5.569c9.409,2.885,21.824,13.731,21.96,13.853
				l1.887,1.669c-2.683-11.051-6.377-17.353-10.109-20.859c0.256,0.047,0.803,0.13,1.462,0.246
				C243.203,42.581,251.529,53.983,252.931,66.347z M206.709,20.654c-1.371,1.616-2.432,3.954-3.097,5.404l-0.053,0.133
				l-0.063-0.133c-1.236-2.733-2.639-5.838-5.457-7.559c-1.129-0.711-2.76-1.058-4.836-1.058c-6.002,0-13.954,2.909-14.287,3.028
				l-3.119,1.159l3.325,0.107c0.134,0.007,11.48,0.465,17.049,5.481c-3.43-1.802-7.508-3.066-9.625-3.066
				c-4.946,0-17.229,8.978-17.749,9.367l-2.666,1.951l3.209-0.795c0.108-0.024,10.618-2.609,19.291-2.609
				c1.121,0,2.167,0.048,3.125,0.132c-0.261-0.011-0.511-0.011-0.742-0.011c-4.92,0-9.719,0.841-11.675,2.03
				c-2.145,1.31-4.285,4.673-6.028,8.071c-0.511,0.809-0.909,1.694-1.284,2.513l-0.032,0.084l-0.035-0.084
				c-0.774-1.69-1.639-3.618-3.382-4.687c-0.712-0.434-1.721-0.658-3.002-0.658c-3.724,0-8.654,1.807-8.864,1.884l-1.933,0.711
				l2.054,0.064c0.085,0,7.123,0.296,10.574,3.406c-2.121-1.112-4.654-1.896-5.966-1.896c-2.527,0-8.152,3.783-10.225,5.243
				c-8.941-8.016-11.742-10.78-16.254-14.872c-4.863-4.398-8.991-3.607-11.212-1.623c-0.736,0.658-7.316,6.919-15.408,14.787
				c-2.533-1.625-5.891-3.535-7.682-3.535c-1.316,0-3.85,0.781-5.975,1.896c3.451-3.106,10.497-3.406,10.574-3.406l2.064-0.064
				l-1.941-0.711c-0.204-0.077-5.132-1.884-8.863-1.884c-1.28,0-2.292,0.222-2.996,0.658c-1.747,1.068-2.618,2.996-3.387,4.687
				l-0.036,0.084L90.067,44.8c-0.371-0.833-0.777-1.718-1.295-2.529c-1.743-3.396-3.881-6.749-6.018-8.058
				c-1.955-1.189-6.754-2.03-11.679-2.03c-0.231,0-0.475,0-0.738,0.01c0.958-0.084,2.006-0.131,3.136-0.131
				c8.666,0,19.177,2.582,19.283,2.609l3.209,0.795l-2.664-1.952c-0.518-0.386-12.807-9.367-17.745-9.367
				c-2.117,0-6.198,1.263-9.625,3.066c5.568-5.016,16.916-5.474,17.047-5.48l3.322-0.108l-3.122-1.159
				c-0.332-0.123-8.28-3.028-14.294-3.028c-2.064,0-3.696,0.347-4.833,1.058c-2.804,1.721-4.217,4.826-5.457,7.559l-0.053,0.133
				l-0.055-0.133c-0.731-1.616-1.642-3.64-2.965-5.273c20.81-8.557,47.137-13.682,75.75-13.682
				C159.733,7.102,185.949,12.177,206.709,20.654z M32.856,32.974c0.343-0.038,0.634-0.06,0.768-0.066
				c0.475-0.011,0.619,0.066,0.231,0.307c-4.876,2.99-9.284,17.586-9.489,18.164l-0.844,2.379l1.89-1.67
				c0.144-0.122,12.558-10.968,21.965-13.854c-3.537,1.479-7.196,3.68-9.278,5.569c-1.943,1.771-3.209,4.669-4.039,7.71
				c-0.519,0.29-1.11,0.654-1.796,1.107L9.428,68.733C9.966,55.396,18.59,43.054,32.856,32.974z M16.552,91.323l36.037-0.178
				c-0.584,13.104-0.546,21.313,0.164,27.032C36.506,111.089,23.886,101.86,16.552,91.323z M101.242,131.094l6.472-10.314
				c0.207-0.366,0.709-0.65,1.116-0.644l44.397,0.127c0.417,0.003,1.533,0.308,1.736,0.652l5.942,10.228
				c-9.485,1.23-19.411,1.879-29.63,1.879C120.909,133.021,110.854,132.352,101.242,131.094z M209.955,118.113
				c0.749-4.834,0.654-13.522-0.176-27.758l36.996-0.184C239.601,101.146,226.709,110.777,209.955,118.113z"/>
			<g>
				<g>
					<path fill="#C8A499" d="M90.078,55.22c-0.621,0.486-1.183,1.088-1.712,1.753l-1.166,45.452c0,0.648,1.593,1.192,2.794,1.192
						c1.2,0,2.792-0.544,2.792-1.192l-1.172-45.679C91.137,56.164,90.626,55.644,90.078,55.22z"/>
					<path fill="#C8A499" d="M108.463,63.574c-0.395,0.309-0.745,0.687-1.068,1.116l-0.692,26.769c0,0.391,0.928,0.705,1.626,0.705
						c0.701,0,1.631-0.314,1.631-0.705l-0.706-27.116C109.008,64.054,108.743,63.795,108.463,63.574z"/>
					<path fill="#C8A499" d="M58.515,42.854c-0.865,0.676-1.663,1.477-2.398,2.375l-2.138,73.738
						c2.468,1.038,5.015,2.022,7.625,2.96c1.463-4.368,1.142-18.457,1.142-18.457l-1.774-58.16
						C60.211,44.374,59.396,43.547,58.515,42.854z"/>
				</g>
				<path fill="#C8A499" d="M203.536,42.854c-0.984,0.77-1.883,1.712-2.712,2.776l-1.974,77c3.201-1.101,6.299-2.266,9.289-3.506
					l-1.89-73.494C205.419,44.566,204.522,43.621,203.536,42.854z"/>
				<path fill="#C8A499" d="M153.591,63.574c-0.27,0.21-0.507,0.447-0.742,0.711l-0.7,27.174c0,0.391,0.928,0.705,1.626,0.705
					c0.697,0,1.618-0.314,1.618-0.705l-0.68-26.688C154.373,64.306,154,63.898,153.591,63.574z"/>
				<path fill="#C8A499" d="M171.973,55.22c-0.531,0.406-1.025,0.9-1.477,1.459l-1.179,45.749c0,0.653,1.587,1.193,2.792,1.193
					c1.196,0,2.792-0.54,2.792-1.193l-1.166-45.375C173.206,56.347,172.618,55.721,171.973,55.22z"/>
			</g>
			<g>
				<path fill="#9B7E63" d="M109.596,91.822l0.019,0.047c0.15-0.091,0.271-0.197,0.321-0.307l0,0c0,0,0,0,0-0.007l0,0
					c0,0,0-0.007,0-0.015l0,0c0,0,0,0,0.003-0.003l0,0l0.003-0.006l0,0c0-0.004,0-0.004,0-0.004c0-0.011,0-0.011,0-0.011
					s0,0,0-0.007v-0.003c0,0,0,0,0-0.008v-0.006c0,0,0,0,0.006,0v-0.01l0,0c0,0,0,0,0-0.008l0,0h0.003l0,0c0-0.01,0-0.018,0-0.018
					l-0.706-27.118c-0.116-0.136-0.242-0.272-0.367-0.396C109.011,73.283,108.196,82.464,109.596,91.822z"/>
				<path fill="#9B7E63" d="M90.609,55.671c-1.393,6.548,0.234,13.913,0.308,20.488c0.05,4.996-0.006,9.976-0.251,14.972
					c-0.144,2.953,0.067,9.831-1.606,12.387c0.308,0.063,0.615,0.093,0.906,0.097l0,0c0.006,0,0.019,0,0.029,0
					c1.2,0,2.792-0.544,2.792-1.193l-1.172-45.679C91.296,56.357,90.963,55.993,90.609,55.671z"/>
				<path fill="#9B7E63" d="M59.222,43.46c-2.934,11.476,1.092,24.097,0.275,35.577c-0.521,7.418,0.133,14.777-0.154,22.19
					c-0.241,6.342-1.606,13.938,0.841,20.19c0.471,0.168,0.948,0.339,1.419,0.51c0.638-1.894,0.945-5.623,1.072-9.249
					c0.178-4.699,0.074-9.211,0.074-9.211l-1.753-57.61l-0.021-0.55C60.422,44.636,59.84,44.017,59.222,43.46z"/>
				<path fill="#9B7E63" d="M154.42,74.709c0.364,5.701-0.291,11.532-0.438,17.25c0,0.062,0.01,0.137,0.013,0.191
					c0.571-0.044,1.206-0.267,1.359-0.554c0.003,0,0.003,0,0.003,0l0,0c0-0.007,0-0.007,0-0.007v-0.008c0.003,0,0.003,0,0.003,0
					c0-0.006,0-0.006,0.004-0.006l0,0c0,0,0,0,0-0.014l0,0c0,0,0.006,0,0.006-0.007l0,0l0,0c0.007-0.007,0.007-0.007,0.007-0.015
					l0,0c0-0.003,0-0.003,0-0.009l0,0c0,0,0.003,0,0.003-0.004c0,0,0,0,0-0.011l0,0c0,0,0,0,0-0.007v-0.003
					c0.003,0,0.003,0,0.003-0.008v-0.006l0,0c0,0,0-0.003,0-0.01h0.004l0,0c0-0.008,0-0.008,0-0.008l0,0l0,0c0-0.01,0-0.018,0-0.018
					l-0.679-26.691c-0.161-0.22-0.332-0.427-0.501-0.608C153.528,67.319,154.243,71.82,154.42,74.709z"/>
				<path fill="#9B7E63" d="M173.517,81.141c0.017,4.963-0.228,9.755-1.12,14.66c-0.396,2.139-0.571,5.52-3.066,6.19l-0.01,0.434
					c0,0.648,1.588,1.192,2.792,1.192c1.196,0,2.792-0.544,2.792-1.192L173.74,57.05c-0.2-0.258-0.408-0.511-0.619-0.748
					C172.611,63.763,173.479,74.946,173.517,81.141z"/>
				<path fill="#9B7E63" d="M204.468,79.098c0.355,6.727-0.24,13.268-0.221,19.949c0.014,6.357-0.396,15.142-1.181,22.077
					c1.719-0.646,3.416-1.319,5.072-1.999l-1.89-73.494c-0.137-0.19-0.277-0.371-0.431-0.548
					C203.75,56.347,203.879,67.687,204.468,79.098z"/>
			</g>
			<g>
				<path fill="#008A52" d="M160.15,62.983l-0.109,0.15c0.41,0.266,0.761,0.535,1.041,0.788c2.028,1.84,2.054,7.04,2.054,7.258
					v0.874l-0.448-0.748c-0.029-0.053-2.003-3.359-4.257-5.852l-0.17,0.262l0.224,0.291c0.318,0.461,0.451,0.984,0.451,1.635
					c0,0.959-0.287,2.208-0.686,3.985l-0.511,2.206c0,0-0.297-2.671-1.205-5.39l-0.588,0.992c0.193,4.545,0.281,10.109,0.281,14.635
					c0,1.818-0.014,3.473-0.043,4.815c1.355,0,2.685,0.004,4.007,0.004c2.898,0,5.72-0.011,8.439-0.023
					c0.106-5.196,0.25-10.354,0.287-12.32c0.046-1.85,0.157-5.65,0.273-9.494c-0.851-0.692-1.723-1.402-2.601-2.111
					c-1.196,4.052-1.603,7.671-1.603,7.671l-0.852-3.746c-0.332-1.477-0.615-2.732-0.826-3.825
					C162.375,64.355,161.277,63.608,160.15,62.983"/>
				<path fill="#008A52" d="M198.236,72.339l-15.42,10.401c-0.74,0.492-2.206,0.993-3.105,1.001l0,0l0,0l5.25-3.872h-0.01
					l-0.157-0.13l-0.074-0.061c-0.096-0.074-0.277-0.225-0.54-0.438l-0.265-0.214c-1.125-0.917-3.259-2.65-6.051-4.918
					c-0.634-0.511-1.292-1.042-1.984-1.613l-0.008-0.007c0.343,4.732,0.613,10.206,0.69,16.271
					c8.036-0.146,14.815-0.431,19.558-0.951c0.614-0.074,1.229-0.129,1.841-0.19c0.029-1.436,0.053-2.912,0.077-4.447
					C198.09,79.385,198.163,75.771,198.236,72.339"/>
				<path fill="#008A52" d="M228.731,54.568c0.861,4.592,0.868,8.753,0.868,9.083v2.379l-1.216-2.048
					c-0.055-0.087-2.263-3.79-5.442-8.21l-5.53,3.7c-0.313,1.571-0.724,3.345-1.189,5.382l-1.367,6.041c0,0-0.431-3.768-1.589-8.65
					l-5.145,3.443l-0.01,0.004c0.605,8.148,1.083,15.158,1.463,21.164c3.056-0.1,6.025-0.145,8.9-0.145
					c4.423,0,8.604,0.093,12.441,0.202c3.702,0.078,7.461,0.191,10.839,0.191c2.618,0,5.014-0.068,6.992-0.246
					c2.776-5.194,4.304-10.641,4.389-16.271l-11.791-7.892l-11.197-7.487C229.73,54.918,229.245,54.715,228.731,54.568"/>
				<path fill="#008A52" d="M131.64,35.945h-0.007c0.007,0.011,9.866,23.709-4.735,39.398c-4.161,4.468-6.087,9.045-6.392,13.3
					c0.641,0,1.282,0.007,1.925,0.014c3.231,0.027,6.482,0.048,9.724,0.071l0,0c6.322,0.052,12.614,0.105,18.704,0.141
					c0.69-17.88,0.955-20.672,1.235-23.514c-2.025,3.266-2.615,8.473-2.615,8.473l-0.504-2.204
					c-0.405-1.778-0.692-3.026-0.692-3.985c0.003-0.655,0.14-1.174,0.458-1.636c0.714-1.015,1.509-1.865,2.16-2.484
					c-2.954,2.074-6.328,7.721-6.366,7.787l-0.444,0.748V71.18l0,0c0-0.244,0.027-5.414,2.054-7.258
					c0.762-0.69,2.095-1.492,3.391-2.038c-3.44,1.057-7.982,5.021-8.032,5.071l-0.686,0.61l0.304-0.869
					c0.074-0.214,1.858-5.191,3.637-6.278c0.712-0.438,2.468-0.743,4.266-0.743l0.284,0.003c-0.357-0.027-0.735-0.044-1.156-0.044
					c-3.17,0-7.01,0.941-7.047,0.948l-1.181,0.294l0.984-0.721c0.193-0.141,4.679-3.417,6.492-3.417
					c0.771,0,2.261,0.462,3.514,1.123c-2.034-1.841-6.191-2.005-6.24-2.005l-1.208-0.039l1.135-0.429
					c0.122-0.043,3.034-1.107,5.234-1.107c0.754,0,1.349,0.134,1.766,0.39c0.485,0.294,0.856,0.702,1.157,1.169
					c0.25-0.512,0.511-1.037,0.791-1.547L131.64,35.945"/>
			</g>
		</g>
	</g>
	<g>
		<g>
			<g>
				<g>
					<g>
						<path fill="#005238" d="M272.857,88.834c-0.222,0.082-0.485-0.143-0.485-0.369V73.944c0-0.848,1.073-1.046,1.401-0.34
							c0.793,1.68,1.498,2.898,2.707,4.765c3.271,4.806,8.326,8.859,16.557,8.859c4.645,0,10.339-0.916,12.821-7.58
							c1.664-4.488,0.044-11.588-6.929-13.305c-0.495-0.141-11.204-2.698-15.565-3.987c-6.739-1.984-11.234-8.123-11.48-14.638
							c-0.263-7.238,4.003-17.283,20.299-17.283c5.072,0,8.385,0.978,15.572,0.978c2.427,0,3.849-0.427,4.528-0.718
							c0,0,0.462-0.147,0.517,0.336V43.45c0,0.688-0.931,0.993-1.34,0.37c-4.334-7.14-9.317-10.245-18.566-10.245
							c-9.188,0-11.536,7.016-11.587,10.245c-0.164,8.505,7.54,10.24,7.54,10.24c5.086,1.352,12.772,2.896,16.625,4.18
							c5.451,1.697,10.285,6.504,10.319,14.882c0.058,8.39-5.999,13.406-9.451,14.831c-3.404,1.483-7.766,2.201-13.091,2.201
							c-7.677,0-13.798-1.743-17.78-1.743C274.082,88.415,273.309,88.67,272.857,88.834z"/>
					</g>
				</g>
				<path fill="#005238" d="M363.946,89.129c-3.665,0-35.479,0-42.424,0c-0.349,0-0.393-0.431-0.188-0.649
					c2.177-1.593,3.079-3.989,3.079-7.626c0-2.705,0-41.865,0-41.865c0-3.134-1.128-5.23-3.079-6.722
					c-0.271-0.192-0.134-0.633,0.242-0.633h41.016c0,0,0.382-0.025,0.389,0.357v8.864c0,0.627-0.765,0.991-1.257,0.46
					c-4.423-4.495-8.792-6.766-19.024-6.766c-0.868,0-4.108,0-5.619,0c-1.518,0-2.796,1.248-2.796,2.975c0,0,0,9.296,0,19.04
					c2.064,0,6.22,0,7.86,0c7.657,0,11.854-1.502,14.739-3.92c0.354-0.298,1.127-0.004,1.127,0.601v9.051
					c0,0.601-0.621,0.939-1.209,0.558c-2.994-2.01-7.979-3.195-14.752-3.195c-1.631,0-5.722,0-7.77,0c0,9.039,0,17.629,0,18.818
					c0,5.671,1.809,7.836,11.338,7.836c8.951,0,14.513-3.726,19.201-9.984c0.406-0.546,1.442-0.339,1.313,0.592l-1.805,11.888
					C364.335,88.814,364.233,89.153,363.946,89.129z"/>
				<path fill="#005238" d="M400.846,60.235c1.073-0.102,2.099-0.244,3.056-0.438c7.68-1.634,11.437-8.205,11.437-13.903
					c0-3.817-1.589-7.645-4.515-10.33c-3.356-3.095-6.843-3.931-11.427-3.931c-3.131,0-22.972,0.011-28.03,0
					c-0.387,0-0.44,0.472-0.229,0.633c1.948,1.498,3.087,3.592,3.087,6.722c0,0,0,39.16,0,41.865c0,3.63-0.913,6.033-3.087,7.626
					c-0.287,0.226-0.095,0.649,0.229,0.649h15.849c0.363,0,0.554-0.451,0.212-0.69c-2.133-1.589-3.021-3.984-3.021-7.581
					c0-1.212,0-10.202,0-19.737c0-0.447,0.335-0.717,0.725-0.717c0.547,0,1.073,0,1.501,0c1.589,0,2.666,0.437,3.968,2.094
					c1.237,1.571,18.259,24.072,19.975,26.354c0,0,0.15,0.205,0.342,0.188h13.347c0.688,0,1.054-0.922,0.387-1.366
					c-3.147-1.877-5.428-4.09-9.249-8.378c-1.647-1.851-13.624-17.04-14.763-18.492C400.498,60.639,400.539,60.291,400.846,60.235z
					 M403.19,54.285c-1.593,2.117-4.341,3.165-8.914,3.165c-1.306,0-6.392,0-9.153,0c-0.399,0-0.718-0.327-0.718-0.695
					c0-10.222,0-19.787,0-19.787c0-1.396,0.718-2.244,2.297-2.308c2.317-0.091,7.123-0.114,9.81,0.07
					c3.063,0.224,5.312,1.313,6.743,3.402c0,0,2.39,3.038,2.509,7.468C405.884,50.036,404.131,52.882,403.19,54.285z"/>
			</g>
		</g>
	</g>
</g>
</svg>
