<?xml version="1.0" encoding="utf-8"?>
<!-- Generator: Adobe Illustrator 16.0.0, SVG Export Plug-In . SVG Version: 6.00 Build 0)  -->
<!DOCTYPE svg PUBLIC "-//W3C//DTD SVG 1.1//EN" "http://www.w3.org/Graphics/SVG/1.1/DTD/svg11.dtd">
<svg version="1.1" id="Layer_1" xmlns="http://www.w3.org/2000/svg" xmlns:xlink="http://www.w3.org/1999/xlink" x="0px" y="0px"
	 width="128px" height="60px" viewBox="0 0 128 60" enable-background="new 0 0 128 60" xml:space="preserve">
<g>
	<g>
		<g>
			<path fill="#005238" d="M25.249,48.441c0.67,0,1.177,0.175,1.508,0.558c0.328,0.358,0.493,0.853,0.493,1.479
				c0,0.696-0.173,1.231-0.521,1.613c-0.35,0.373-0.857,0.568-1.51,0.568h-0.869v-4.218H25.249z M24.806,48.797v3.513h0.341
				c0.503,0,0.895-0.159,1.184-0.467c0.283-0.309,0.426-0.767,0.426-1.38c0-0.535-0.134-0.935-0.4-1.229
				c-0.271-0.284-0.669-0.438-1.2-0.438H24.806z"/>
			<path fill="#005238" d="M30.256,48.816h-1.799v1.44h1.435v0.347h-1.435v1.687h1.878v0.369h-2.335v-4.218h2.255V48.816z"/>
			<g>
				<path fill="#005238" d="M30.774,52.127c0.395,0.417,0.826,0.593,1.455,0.593c0.641,0,1.39-0.317,1.39-1.189
					c0-0.825-0.543-0.984-1.261-1.273c-0.805-0.338-1.032-0.525-1.032-0.91c0-0.354,0.367-0.621,0.866-0.621
					c0.41,0,0.644,0.126,0.983,0.415l0.265-0.299c-0.348-0.359-0.701-0.523-1.257-0.523c-0.638,0-1.319,0.336-1.319,1.073
					c0,0.669,0.462,0.973,1.216,1.264c0.821,0.307,1.061,0.475,1.061,0.935c0,0.466-0.341,0.749-0.908,0.749
					c-0.414,0-0.754-0.167-1.11-0.53L30.774,52.127z"/>
			</g>
			<path fill="#005238" d="M35.128,48.441c0.672,0,1.173,0.175,1.502,0.558c0.337,0.358,0.499,0.853,0.499,1.479
				c0,0.696-0.171,1.231-0.53,1.613c-0.346,0.373-0.846,0.568-1.5,0.568h-0.868v-4.218H35.128z M34.686,48.797v3.513h0.342
				c0.502,0,0.895-0.159,1.177-0.467c0.284-0.309,0.425-0.767,0.425-1.38c0-0.535-0.132-0.935-0.399-1.229
				c-0.266-0.284-0.663-0.438-1.193-0.438H34.686z"/>
			<path fill="#005238" d="M40.136,48.816h-1.798v1.44h1.441v0.347h-1.441v1.687h1.874v0.369h-2.33v-4.218h2.255V48.816z"/>
			<path fill="#005238" d="M44.667,52.291v-3.365l-0.8,0.407l0.002-0.443l0.877-0.448h0.376v3.85h0.708v0.368h-1.934v-0.368H44.667z
				"/>
			<path fill="#005238" d="M48.496,50.373c0.625,0.264,0.987,0.552,0.987,1.141c0,0.844-0.585,1.206-1.416,1.206
				c-0.86,0-1.397-0.394-1.397-1.213c0-0.484,0.277-0.856,0.871-1.173c-0.416-0.209-0.748-0.437-0.748-0.977
				c0-0.707,0.623-1.039,1.271-1.039c0.661,0,1.275,0.341,1.275,1.062C49.34,49.961,48.859,50.253,48.496,50.373z M47.844,50.532
				c-0.388,0.215-0.727,0.41-0.727,0.975c0,0.545,0.434,0.842,0.965,0.842c0.601,0,0.954-0.315,0.954-0.824
				C49.036,50.848,48.27,50.658,47.844,50.532z M48.125,50.21c0.35-0.15,0.779-0.441,0.779-0.799c0-0.437-0.343-0.714-0.839-0.714
				c-0.471,0-0.837,0.25-0.837,0.68C47.228,49.869,47.785,50.082,48.125,50.21z"/>
			<path fill="#005238" d="M50.264,52.169c0.304,0.136,0.498,0.168,0.733,0.168c0.704,0,1.016-0.613,1.117-1.515
				c-0.175,0.175-0.582,0.305-0.88,0.305c-0.846,0-1.342-0.515-1.342-1.352c0-0.761,0.417-1.457,1.446-1.457
				c0.862,0,1.289,0.668,1.289,1.833c0,1.763-0.57,2.568-1.718,2.568c-0.267,0-0.546-0.039-0.802-0.143L50.264,52.169z
				 M50.345,49.765c0,0.569,0.298,0.969,0.917,0.969c0.358,0.005,0.66-0.088,0.865-0.36c0.134-0.813-0.127-1.648-0.853-1.648
				C50.718,48.725,50.345,49.122,50.345,49.765z"/>
			<path fill="#005238" d="M54.459,52.72c-0.456,0-0.79-0.19-1.006-0.567c-0.22-0.376-0.326-0.945-0.326-1.683
				c0-0.646,0.109-1.159,0.334-1.54c0.224-0.409,0.564-0.611,1.02-0.611c0.429,0,0.766,0.184,0.995,0.541
				c0.229,0.343,0.343,0.916,0.343,1.69c0,0.744-0.117,1.292-0.353,1.642C55.23,52.542,54.891,52.72,54.459,52.72z M54.48,52.339
				c0.29,0,0.505-0.141,0.642-0.422c0.145-0.272,0.215-0.771,0.215-1.495c0-0.503-0.054-0.898-0.164-1.23
				c-0.111-0.313-0.341-0.464-0.694-0.464c-0.345,0-0.578,0.15-0.696,0.467c-0.118,0.337-0.175,0.755-0.173,1.281
				c0,0.731,0.069,1.228,0.213,1.476C53.965,52.211,54.184,52.339,54.48,52.339z"/>
		</g>
		<g>
			<linearGradient id="SVGID_1_" gradientUnits="userSpaceOnUse" x1="40.0767" y1="-9.8496" x2="40.0767" y2="24.1429">
				<stop  offset="0" style="stop-color:#00B6E8"/>
				<stop  offset="1" style="stop-color:#D4EFFC"/>
			</linearGradient>
			<path fill="url(#SVGID_1_)" d="M40.078,7.128C20.169,7.128,4,15.639,4,26.371c0,10.735,16.169,19.246,36.078,19.246
				c19.91,0,36.075-8.511,36.075-19.246C76.153,15.639,59.988,7.128,40.078,7.128z"/>
			<g>
				<g>
					<path fill="#00A851" d="M12.206,24.634c0.013-0.022,0.499-0.838,1.23-1.89c0.06,0.026,0.119,0.055,0.171,0.092l1.892,1.265
						c0.054,0.245,0.114,0.504,0.176,0.781l0.396,1.726c0,0,0.089-0.799,0.324-1.908l1.597,1.067
						c-0.171,2.404-0.292,4.452-0.375,6.198L7.065,32.099c-1.014-1.557-1.624-3.206-1.772-4.915l3.3-2.208l3.197-2.139
						c0.06-0.041,0.126-0.075,0.192-0.106c-0.122,0.969-0.127,1.737-0.127,1.81v0.68L12.206,24.634z"/>
					<path fill="#00A851" d="M27.363,26.729c-0.089,1.447-0.167,3.138-0.205,4.972c-1.946,0.035-3.667,0.102-5.039,0.209
						l-1.317,0.017c-0.031-0.949-0.063-1.629-0.067-1.809c-0.014-0.882-0.036-1.731-0.063-2.545l4.645,3.131
						c0.208,0.142,0.629,0.284,0.886,0.284l-2.097-1.542C24.615,29.136,25.84,28.092,27.363,26.729z"/>
					<path fill="#00A851" d="M30.975,26.725c0.008-0.015,0.575-0.96,1.216-1.672l0.05,0.075l-0.065,0.083
						c-0.224,0.323-0.127,0.751,0.069,1.606l0.142,0.63c0,0,0.087-0.763,0.348-1.54l0.152,0.258
						c-0.051,1.796-0.023,4.158-0.003,5.498c-1.259-0.002-2.479,0.002-3.643,0.011c-0.019-1.975-0.052-4.391-0.114-6.548
						c0.205-0.188,0.415-0.381,0.623-0.574c0.428,1.293,0.569,2.548,0.569,2.548l0.243-1.07c0.097-0.422,0.178-0.781,0.237-1.094
						c0.265-0.194,0.58-0.408,0.902-0.587l0.03,0.043c-0.116,0.076-0.217,0.153-0.298,0.225c-0.58,0.526-0.586,2.012-0.586,2.074
						v0.25L30.975,26.725z"/>
					<path fill="#00A851" d="M47.853,25.21l-0.064-0.083l0.049-0.075c0.644,0.712,1.208,1.658,1.216,1.672l0.128,0.214v-0.25
						c0-0.062-0.007-1.548-0.587-2.074c-0.08-0.072-0.181-0.149-0.296-0.225l0.03-0.043c0.322,0.179,0.636,0.393,0.901,0.587
						c0.06,0.312,0.141,0.671,0.236,1.093l0.243,1.07c0,0,0.117-1.034,0.459-2.192c0.251,0.203,0.5,0.406,0.743,0.604
						c-0.033,1.098-0.065,2.184-0.077,2.712c-0.012,0.562-0.052,2.035-0.083,3.52c-1.131,0.007-2.323,0.009-3.555,0.006
						c0.028-1.339,0.008-3.737-0.069-5.557l0.168-0.284c0.259,0.777,0.344,1.54,0.344,1.54l0.146-0.63
						C47.979,25.962,48.078,25.533,47.853,25.21"/>
					<path fill="#00A851" d="M54.805,29.993l4.406-2.972c-0.021,0.981-0.042,2.013-0.057,3.096
						c-0.007,0.438-0.015,0.859-0.022,1.271c-0.175,0.017-0.352,0.033-0.526,0.054c-1.355,0.149-3.292,0.23-5.588,0.272
						c-0.022-1.733-0.099-3.298-0.197-4.649l0.002,0.002c0.198,0.163,0.388,0.315,0.567,0.461c0.797,0.647,1.408,1.143,1.729,1.405
						l0.078,0.061c0.075,0.06,0.125,0.104,0.152,0.125l0.022,0.018l0.044,0.037h0.004l-1.5,1.106
						C54.175,30.277,54.594,30.134,54.805,29.993"/>
					<path fill="#00A851" d="M62.032,25.122l0.003-0.001l1.471-0.984c0.33,1.395,0.453,2.472,0.453,2.472l0.393-1.726
						c0.132-0.582,0.248-1.089,0.338-1.538l1.58-1.057c0.908,1.263,1.539,2.321,1.554,2.346l0.348,0.585v-0.68
						c0-0.093-0.002-1.283-0.248-2.595c0.146,0.042,0.285,0.1,0.403,0.182l3.2,2.139l3.368,2.255
						c-0.024,1.609-0.461,3.165-1.253,4.649c-1.299,0.119-3.22,0.06-5.095,0.016c-1.811-0.048-3.886-0.092-6.098-0.016
						C62.343,29.452,62.205,27.45,62.032,25.122"/>
					<path fill="#00A851" d="M43.908,22.313c0.013,0,1.2,0.046,1.781,0.573c-0.358-0.189-0.784-0.321-1.004-0.321
						c-0.518,0-1.8,0.936-1.855,0.976l-0.279,0.206l0.336-0.084c0.011-0.002,1.108-0.271,2.014-0.271
						c0.119,0,0.229,0.005,0.33,0.013l-0.08-0.001c-0.515,0-1.015,0.086-1.218,0.212c-0.51,0.312-1.02,1.734-1.041,1.794
						l-0.087,0.248l0.197-0.174c0.014-0.014,1.311-1.147,2.294-1.449c-0.371,0.156-0.751,0.385-0.969,0.582
						c-0.581,0.526-0.585,2.012-0.585,2.074v0.25l0.126-0.214c0.011-0.019,0.976-1.632,1.819-2.225
						c-0.186,0.177-0.413,0.421-0.617,0.71c-0.225,0.323-0.128,0.751,0.067,1.606l0.144,0.63c0,0,0.167-1.488,0.747-2.421
						c-0.079,0.813-0.156,1.61-0.353,6.718c-1.74-0.01-3.538-0.025-5.344-0.04c-2.055-0.016-4.118-0.032-6.111-0.039
						c-0.205-5.223-0.284-5.96-0.37-6.863c0.703,0.897,0.898,2.645,0.898,2.645l0.146-0.63c0.193-0.855,0.292-1.284,0.065-1.606
						c-0.204-0.29-0.431-0.533-0.615-0.71c0.843,0.593,1.806,2.206,1.819,2.225l0.128,0.214v-0.25c0-0.062-0.008-1.548-0.585-2.074
						c-0.219-0.197-0.6-0.426-0.971-0.582c0.983,0.302,2.281,1.435,2.295,1.449l0.197,0.174l-0.087-0.248
						c-0.022-0.061-0.531-1.483-1.04-1.794c-0.205-0.125-0.708-0.212-1.222-0.212L34.8,23.404c0.102-0.008,0.211-0.013,0.33-0.013
						c0.902,0,2.003,0.269,2.014,0.271l0.335,0.084l-0.28-0.206c-0.054-0.04-1.335-0.976-1.853-0.976
						c-0.223,0-0.647,0.132-1.005,0.321c0.581-0.526,1.766-0.573,1.781-0.573l0.347-0.011l-0.326-0.123
						c-0.036-0.012-0.865-0.316-1.494-0.316c-0.215,0-0.384,0.038-0.504,0.111c-0.14,0.084-0.244,0.201-0.333,0.334
						c-0.165-0.349-0.358-0.708-0.563-1.017c2.55-2.402,4.624-4.392,4.624-4.392c0.957-1,1.535-0.892,2.296-0.287l0,0h0.002
						l0.013,0.011l6.259,5.242c-0.08,0.146-0.154,0.296-0.226,0.442c-0.086-0.133-0.192-0.25-0.331-0.334
						c-0.119-0.073-0.29-0.111-0.504-0.111c-0.628,0-1.46,0.304-1.496,0.316l-0.324,0.123L43.908,22.313"/>
				</g>
				<path fill="#00A851" d="M37.552,31.683c0.923,0.008,1.852,0.016,2.778,0.021C39.404,31.696,38.475,31.69,37.552,31.683"/>
			</g>
			<g>
				<path fill="#94C947" d="M49.465,43.599l-1.646-2.738c-0.059-0.104-0.011-0.185,0.105-0.185h0.833
					c0.117,0,0.155-0.078,0.087-0.171l-0.478-0.681c-0.074-0.091-0.23-0.165-0.348-0.165h-0.679c-0.117,0-0.259-0.084-0.318-0.184
					l-1.083-1.882c-0.059-0.101-0.011-0.184,0.107-0.184h0.526c0.027-0.301-0.426-0.848-0.426-0.848
					c-0.07-0.093-0.139-0.169-0.151-0.169c-0.013,0-0.118,0-0.236,0H45.46c-0.818-0.49-1.209-1.736-1.209-1.736
					c-0.061-0.099-0.012-0.183,0.104-0.183l0.561-0.013c0.117,0,0.477-0.068,0.415-0.166l-0.435-0.661
					c-0.064-0.099-0.126-0.179-0.142-0.179c-0.013,0-0.121,0-0.238,0c0,0-0.846,0.031-1.063-0.183c0,0-0.632-0.566-0.304-1.007
					l2.552,0.1c0.049,0.22,0.173,0.461,0.47,0.488c0.546,0.05,0.988-0.084,1.003-0.365c0.003-0.041,0.004-0.083,0.008-0.129
					l3.56-0.133c-0.032,1.721-0.043,3.454,0.024,3.552c0.587,0.823,2.256,0.595,2.215-0.548c0.031-1.005,0.042-2.093,0.038-3.015
					l6.096-0.029c-0.114,5.645-0.314,8.245-0.041,9.252c-2.922,0.989-6.148,1.758-9.588,2.255
					C49.48,43.649,49.472,43.612,49.465,43.599z"/>
				<path fill="#94C947" d="M31.209,40.676h0.852c0.117,0,0.164,0.081,0.105,0.185l-1.708,2.801
					c-3.599-0.532-6.963-1.362-9.982-2.431c0.489-1.922,0.418-6.29,0.34-8.853l6.331-0.03c-0.015,0.982-0.004,2.102,0.01,3.137
					c0.304,0.839,2.09,0.735,2.119,0.245c0,0-0.013-1.468-0.027-3.392l3.647-0.019c0.026,0.267,0.153,0.549,0.901,0.454
					c0.355-0.048,0.437-0.293,0.45-0.462l2.736-0.012c0.053,0.076,0.065,0.22,0.022,0.29l-0.4,0.684
					c-0.057,0.103-0.201,0.183-0.318,0.183h-0.888c-0.117,0-0.264,0.08-0.328,0.179l-0.434,0.661
					c-0.062,0.098-0.02,0.179,0.097,0.179h0.958c0.118,0,0.166,0.082,0.105,0.183l-0.909,1.552c-0.058,0.1-0.202,0.185-0.318,0.185
					h-0.409c-0.116,0-0.269,0.076-0.338,0.169l-0.513,0.679c-0.069,0.093-0.03,0.169,0.085,0.169h0.579
					c0.116,0,0.163,0.082,0.105,0.184l-1.101,1.884c-0.059,0.098-0.203,0.182-0.319,0.182h-0.76c-0.116,0-0.264,0.078-0.331,0.176
					l-0.449,0.664C31.048,40.598,31.093,40.676,31.209,40.676z"/>
				<path fill="#94C947" d="M42.759,34.475c0.116,0,0.26,0.084,0.317,0.183l1.134,1.791c0.056,0.102,0.009,0.184-0.107,0.184
					l-7.93-0.238c-0.117,0-0.164-0.085-0.105-0.185l0.91-1.552c0.06-0.101,0.202-0.183,0.319-0.183H42.759z"/>
				<path fill="#94C947" d="M37.627,33.549l0.563-0.959c0.058-0.101,0.201-0.18,0.317-0.18h3.064c0.115,0,0.259,0.081,0.318,0.183
					l0.371,0.875c0.058,0.101,0.009,0.183-0.107,0.183l-4.42,0.081C37.615,33.731,37.568,33.648,37.627,33.549z"/>
				<path fill="#94C947" d="M34,39.63l1.259-2.036c0.059-0.102,0.202-0.184,0.318-0.184h8.871c0.119,0,0.261,0.083,0.318,0.184
					l1.084,1.882c0.057,0.1,0.009,0.181-0.107,0.177l-11.637,0.163C33.989,39.815,33.942,39.731,34,39.63z"/>
				<path fill="#94C947" d="M7.301,32.445l10.296-0.051c-0.167,3.745-0.156,6.091,0.047,7.724
					C13.002,38.093,9.396,35.456,7.301,32.445z"/>
				<path fill="#94C947" d="M31.498,43.809l1.849-2.948c0.059-0.104,0.203-0.185,0.319-0.183l12.685,0.036
					c0.119,0.001,0.438,0.088,0.496,0.187l1.698,2.921c-2.71,0.352-5.546,0.538-8.466,0.538
					C37.117,44.359,34.244,44.168,31.498,43.809z"/>
				<path fill="#94C947" d="M62.559,40.099c0.214-1.38,0.187-3.863-0.05-7.93l10.57-0.053
					C71.029,35.252,67.346,38.004,62.559,40.099z"/>
			</g>
			<path fill="#005238" d="M40.078,7.128C20.169,7.128,4,15.639,4,26.371c0,10.735,16.169,19.246,36.078,19.246
				c19.91,0,36.075-8.511,36.075-19.246C76.153,15.639,59.988,7.128,40.078,7.128z M49.465,43.599l-1.646-2.738
				c-0.059-0.104-0.011-0.185,0.105-0.185h0.833c0.117,0,0.155-0.078,0.087-0.171l-0.478-0.681c-0.074-0.091-0.23-0.165-0.348-0.165
				h-0.679c-0.117,0-0.259-0.084-0.318-0.184l-1.083-1.882c-0.059-0.101-0.011-0.184,0.107-0.184h0.526
				c0.027-0.301-0.426-0.848-0.426-0.848c-0.07-0.093-0.139-0.169-0.151-0.169c-0.013,0-0.118,0-0.236,0H45.46
				c-0.818-0.49-1.209-1.736-1.209-1.736c-0.061-0.099-0.012-0.183,0.104-0.183l0.561-0.013c0.117,0,0.477-0.068,0.415-0.166
				l-0.435-0.661c-0.064-0.099-0.126-0.179-0.142-0.179c-0.013,0-0.121,0-0.238,0c0,0-0.846,0.031-1.063-0.183
				c0,0-0.632-0.566-0.304-1.007l2.552,0.1c0.049,0.22,0.173,0.461,0.47,0.488c0.546,0.05,0.988-0.084,1.003-0.365
				c0.003-0.041,0.004-0.083,0.008-0.129l3.56-0.133c-0.032,1.721-0.043,3.454,0.024,3.552c0.587,0.823,2.256,0.595,2.215-0.548
				c0.031-1.005,0.042-2.093,0.038-3.015l6.096-0.029c-0.114,5.645-0.314,8.245-0.041,9.252c-2.922,0.989-6.148,1.758-9.588,2.255
				C49.48,43.649,49.472,43.612,49.465,43.599z M31.209,40.676h0.852c0.117,0,0.164,0.081,0.105,0.185l-1.708,2.801
				c-3.599-0.532-6.963-1.362-9.982-2.431c0.489-1.922,0.418-6.29,0.34-8.853l6.331-0.03c-0.015,0.982-0.004,2.102,0.01,3.137
				c0.304,0.839,2.09,0.735,2.119,0.245c0,0-0.013-1.468-0.027-3.392l3.647-0.019c0.026,0.267,0.153,0.549,0.901,0.454
				c0.355-0.048,0.437-0.293,0.45-0.462l2.736-0.012c0.053,0.076,0.065,0.22,0.022,0.29l-0.4,0.684
				c-0.057,0.103-0.201,0.183-0.318,0.183h-0.888c-0.117,0-0.264,0.08-0.328,0.179l-0.434,0.661
				c-0.062,0.098-0.02,0.179,0.097,0.179h0.958c0.118,0,0.166,0.082,0.105,0.183l-0.909,1.552c-0.058,0.1-0.202,0.185-0.318,0.185
				h-0.409c-0.116,0-0.269,0.076-0.338,0.169l-0.513,0.679c-0.069,0.093-0.03,0.169,0.085,0.169h0.579
				c0.116,0,0.163,0.082,0.105,0.184l-1.101,1.884c-0.059,0.098-0.203,0.182-0.319,0.182h-0.76c-0.116,0-0.264,0.078-0.331,0.176
				l-0.449,0.664C31.048,40.598,31.093,40.676,31.209,40.676z M12.206,24.634c0.013-0.022,0.499-0.838,1.23-1.89
				c0.06,0.026,0.119,0.055,0.171,0.092l1.892,1.265c0.054,0.245,0.114,0.504,0.176,0.781l0.396,1.726c0,0,0.089-0.799,0.324-1.908
				l1.597,1.067c-0.171,2.404-0.292,4.452-0.375,6.198L7.065,32.099c-1.014-1.557-1.624-3.206-1.772-4.915l3.3-2.208l3.197-2.139
				c0.06-0.041,0.126-0.075,0.192-0.106c-0.122,0.969-0.127,1.737-0.127,1.81v0.68L12.206,24.634z M16.581,23.903
				c0.366-1.479,0.971-3.249,1.906-4.471c-0.171,2.027-0.315,3.875-0.438,5.552L16.581,23.903z M23.917,25.874
				c0.014-0.021,0.776-1.301,1.714-2.433c0.055,0.083,0.107,0.161,0.156,0.235c-0.137,0.512,0.021,1.206,0.283,2.352l0.204,0.887
				c-1.17,1.144-2.055,2.013-2.405,2.355l-3.222-2.372c-0.128-3.337-0.355-6.019-0.626-7.575c1.959,2.434,2.503,7.284,2.503,7.284
				l0.395-1.726c0.157-0.688,0.29-1.275,0.386-1.783c0.417-0.318,0.909-0.669,1.407-0.981c0.025,0.035,0.05,0.068,0.076,0.103
				c-0.032,0.025-0.065,0.053-0.093,0.077c-0.98,0.894-0.993,3.411-0.993,3.516v0.423L23.917,25.874z M27.363,26.729
				c-0.089,1.447-0.167,3.138-0.205,4.972c-1.946,0.035-3.667,0.102-5.039,0.209l-1.317,0.017c-0.031-0.949-0.063-1.629-0.067-1.809
				c-0.014-0.882-0.036-1.731-0.063-2.545l4.645,3.131c0.208,0.142,0.629,0.284,0.886,0.284l-2.097-1.542
				C24.615,29.136,25.84,28.092,27.363,26.729z M26.35,26.839c0.104-0.706,0.459-2.697,1.306-3.971
				c-0.064,0.691-0.151,1.691-0.235,2.921C27.044,26.158,26.687,26.509,26.35,26.839z M30.975,26.725
				c0.008-0.015,0.575-0.96,1.216-1.672c0.018,0.026,0.034,0.049,0.05,0.075c-0.022,0.027-0.044,0.055-0.065,0.083
				c-0.224,0.323-0.127,0.751,0.069,1.606l0.142,0.63c0,0,0.087-0.763,0.348-1.54l0.152,0.258c-0.051,1.796-0.023,4.158-0.003,5.498
				c-1.259-0.002-2.479,0.002-3.643,0.011c-0.019-1.975-0.052-4.391-0.114-6.548c0.205-0.188,0.415-0.381,0.623-0.574
				c0.428,1.293,0.569,2.548,0.569,2.548l0.243-1.07c0.097-0.422,0.178-0.781,0.237-1.094c0.265-0.194,0.58-0.408,0.902-0.587
				c0.01,0.015,0.021,0.028,0.03,0.043c-0.116,0.076-0.217,0.153-0.298,0.225c-0.58,0.526-0.586,2.012-0.586,2.074v0.25
				L30.975,26.725z M43.908,22.313c0.013,0,1.2,0.046,1.781,0.573c-0.358-0.189-0.784-0.321-1.004-0.321
				c-0.518,0-1.8,0.936-1.855,0.976l-0.279,0.206l0.336-0.084c0.011-0.002,1.108-0.271,2.014-0.271c0.119,0,0.229,0.005,0.33,0.013
				c-0.029-0.001-0.055-0.001-0.08-0.001c-0.515,0-1.015,0.086-1.218,0.212c-0.51,0.312-1.02,1.734-1.041,1.794l-0.087,0.248
				l0.197-0.174c0.014-0.014,1.311-1.147,2.294-1.449c-0.371,0.156-0.751,0.385-0.969,0.582c-0.581,0.526-0.585,2.012-0.585,2.074
				v0.25l0.126-0.214c0.011-0.019,0.976-1.632,1.819-2.225c-0.186,0.177-0.413,0.421-0.617,0.71
				c-0.225,0.323-0.128,0.751,0.067,1.606l0.144,0.63c0,0,0.167-1.488,0.747-2.421c-0.079,0.813-0.156,1.61-0.353,6.718
				c-1.74-0.01-3.538-0.025-5.344-0.04c-2.055-0.016-4.118-0.032-6.111-0.039c-0.205-5.223-0.284-5.96-0.37-6.863
				c0.703,0.897,0.898,2.645,0.898,2.645l0.146-0.63c0.193-0.855,0.292-1.284,0.065-1.606c-0.204-0.29-0.431-0.533-0.615-0.71
				c0.843,0.593,1.806,2.206,1.819,2.225l0.128,0.214v-0.25c0-0.062-0.008-1.548-0.585-2.074c-0.219-0.197-0.6-0.426-0.971-0.582
				c0.983,0.302,2.281,1.435,2.295,1.449l0.197,0.174l-0.087-0.248c-0.022-0.061-0.531-1.483-1.04-1.794
				c-0.205-0.125-0.708-0.212-1.222-0.212c-0.022,0-0.048,0-0.078,0.001c0.102-0.008,0.211-0.013,0.33-0.013
				c0.902,0,2.003,0.269,2.014,0.271l0.335,0.084l-0.28-0.206c-0.054-0.04-1.335-0.976-1.853-0.976
				c-0.223,0-0.647,0.132-1.005,0.321c0.581-0.526,1.766-0.573,1.781-0.573l0.347-0.011l-0.326-0.123
				c-0.036-0.012-0.865-0.316-1.494-0.316c-0.215,0-0.384,0.038-0.504,0.111c-0.14,0.084-0.244,0.201-0.333,0.334
				c-0.165-0.349-0.358-0.708-0.563-1.017c2.55-2.402,4.624-4.392,4.624-4.392c0.957-1,1.535-0.892,2.296-0.287l0,0h0.002
				c0.004,0.005,0.008,0.008,0.013,0.011c0,0,6.227,5.215,6.259,5.242c-0.08,0.146-0.154,0.296-0.226,0.442
				c-0.086-0.133-0.192-0.25-0.331-0.334c-0.119-0.073-0.29-0.111-0.504-0.111c-0.628,0-1.46,0.304-1.496,0.316l-0.324,0.123
				L43.908,22.313z M42.759,34.475c0.116,0,0.26,0.084,0.317,0.183l1.134,1.791c0.056,0.102,0.009,0.184-0.107,0.184l-7.93-0.238
				c-0.117,0-0.164-0.085-0.105-0.185l0.91-1.552c0.06-0.101,0.202-0.183,0.319-0.183H42.759z M37.627,33.549l0.563-0.959
				c0.058-0.101,0.201-0.18,0.317-0.18h3.064c0.115,0,0.259,0.081,0.318,0.183l0.371,0.875c0.058,0.101,0.009,0.183-0.107,0.183
				l-4.42,0.081C37.615,33.731,37.568,33.648,37.627,33.549z M34,39.63l1.259-2.036c0.059-0.102,0.202-0.184,0.318-0.184h8.871
				c0.119,0,0.261,0.083,0.318,0.184l1.084,1.882c0.057,0.1,0.009,0.181-0.107,0.177l-11.637,0.163
				C33.989,39.815,33.942,39.731,34,39.63z M47.853,25.21c-0.021-0.028-0.044-0.056-0.064-0.083
				c0.016-0.026,0.032-0.049,0.049-0.075c0.644,0.712,1.208,1.658,1.216,1.672l0.128,0.214v-0.25c0-0.062-0.007-1.548-0.587-2.074
				c-0.08-0.072-0.181-0.149-0.296-0.225c0.009-0.013,0.019-0.028,0.03-0.043c0.322,0.179,0.636,0.393,0.901,0.587
				c0.06,0.312,0.141,0.671,0.236,1.093l0.243,1.07c0,0,0.117-1.034,0.459-2.192c0.251,0.203,0.5,0.406,0.743,0.604
				c-0.033,1.098-0.065,2.184-0.077,2.712c-0.012,0.562-0.052,2.035-0.083,3.52c-1.131,0.007-2.323,0.009-3.555,0.006
				c0.028-1.339,0.008-3.737-0.069-5.557l0.168-0.284c0.259,0.777,0.344,1.54,0.344,1.54l0.146-0.63
				C47.979,25.962,48.078,25.533,47.853,25.21z M54.244,23.677c0.048-0.075,0.1-0.153,0.153-0.235
				c0.938,1.131,1.701,2.412,1.714,2.433l0.216,0.363v-0.423c0-0.105-0.011-2.622-0.993-3.516c-0.029-0.024-0.063-0.052-0.093-0.077
				c0.956-1.322,2.206-2.853,3.37-3.673c-0.506,0.488-1.127,1.156-1.683,1.947c-0.62,0.883-0.352,2.053,0.185,4.388l0.391,1.726
				c0,0,0.471-4.183,2.106-6.727c-0.194,1.495-0.307,3.745-0.381,6.487l-3.568,2.628c-1.047-0.909-2.006-1.744-2.885-2.512
				c-0.125-1.551-0.276-2.778-0.388-3.594c1.031,1.577,1.326,4.209,1.326,4.209l0.244-1.07C54.22,24.882,54.38,24.188,54.244,23.677
				z M54.805,29.993l4.406-2.972c-0.021,0.981-0.042,2.013-0.057,3.096c-0.007,0.438-0.015,0.859-0.022,1.271
				c-0.175,0.017-0.352,0.033-0.526,0.054c-1.355,0.149-3.292,0.23-5.588,0.272c-0.022-1.733-0.099-3.298-0.197-4.649
				c0.001,0.001,0.002,0.002,0.002,0.002c0.198,0.163,0.388,0.315,0.567,0.461c0.797,0.647,1.408,1.143,1.729,1.405
				c0.027,0.022,0.054,0.042,0.078,0.061c0.075,0.06,0.125,0.104,0.152,0.125c0.015,0.011,0.022,0.018,0.022,0.018
				c0.013,0.015,0.028,0.028,0.044,0.037c0.002,0,0.003,0,0.004,0l-1.5,1.106C54.175,30.277,54.594,30.134,54.805,29.993z
				 M61.608,19.518c0.79,1.069,1.334,2.529,1.7,3.848l-1.333,0.981C61.866,22.868,61.742,21.26,61.608,19.518z M62.032,25.122
				l0.003-0.001l1.471-0.984c0.33,1.395,0.453,2.472,0.453,2.472l0.393-1.726c0.132-0.582,0.248-1.089,0.338-1.538l1.58-1.057
				c0.908,1.263,1.539,2.321,1.554,2.346l0.348,0.585v-0.68c0-0.093-0.002-1.283-0.248-2.595c0.146,0.042,0.285,0.1,0.403,0.182
				l3.2,2.139l3.368,2.255c-0.024,1.609-0.461,3.165-1.253,4.649c-1.299,0.119-3.22,0.06-5.095,0.016
				c-1.811-0.048-3.886-0.092-6.098-0.016C62.343,29.452,62.205,27.45,62.032,25.122z M74.838,25.309l-6.347-4.467
				c-0.228-0.153-0.553-0.2-0.889-0.176c-0.233-0.717-0.563-1.371-1.033-1.796c-0.593-0.54-1.637-1.168-2.648-1.591
				c2.689,0.824,6.235,3.923,6.274,3.958l0.539,0.477c-0.766-3.158-1.822-4.958-2.889-5.96c0.074,0.013,0.23,0.037,0.418,0.07
				C72.058,18.519,74.437,21.777,74.838,25.309z M61.632,12.254c-0.392,0.462-0.695,1.13-0.885,1.544l-0.015,0.038l-0.018-0.038
				c-0.353-0.781-0.754-1.668-1.559-2.16c-0.323-0.203-0.789-0.302-1.382-0.302c-1.715,0-3.987,0.831-4.082,0.865L52.8,12.532
				l0.95,0.031c0.038,0.002,3.28,0.133,4.871,1.566c-0.98-0.515-2.145-0.876-2.75-0.876c-1.413,0-4.923,2.565-5.071,2.676
				l-0.762,0.558l0.917-0.227c0.031-0.007,3.034-0.746,5.512-0.746c0.32,0,0.619,0.014,0.893,0.038
				c-0.075-0.003-0.146-0.003-0.212-0.003c-1.406,0-2.777,0.24-3.336,0.58c-0.613,0.374-1.224,1.335-1.722,2.306
				c-0.146,0.231-0.26,0.484-0.367,0.718l-0.009,0.024l-0.01-0.024c-0.221-0.483-0.468-1.034-0.966-1.339
				c-0.204-0.124-0.492-0.188-0.858-0.188c-1.064,0-2.473,0.516-2.533,0.538l-0.552,0.203l0.587,0.019
				c0.024,0,2.035,0.084,3.021,0.973c-0.606-0.318-1.33-0.542-1.705-0.542c-0.722,0-2.329,1.081-2.921,1.498
				c-2.555-2.29-3.355-3.08-4.644-4.249c-1.39-1.257-2.569-1.031-3.204-0.464c-0.21,0.188-2.09,1.977-4.402,4.225
				c-0.724-0.464-1.683-1.01-2.195-1.01c-0.376,0-1.1,0.223-1.707,0.542c0.986-0.888,2.999-0.973,3.021-0.973l0.59-0.019
				l-0.555-0.203c-0.058-0.022-1.466-0.538-2.532-0.538c-0.366,0-0.655,0.063-0.856,0.188c-0.499,0.305-0.748,0.856-0.968,1.339
				l-0.01,0.024l-0.01-0.024c-0.106-0.238-0.222-0.491-0.37-0.723c-0.498-0.97-1.109-1.928-1.719-2.302
				c-0.559-0.34-1.93-0.58-3.337-0.58c-0.066,0-0.136,0-0.211,0.003c0.274-0.024,0.573-0.038,0.896-0.038
				c2.476,0,5.479,0.738,5.509,0.746l0.917,0.227l-0.761-0.558c-0.148-0.11-3.659-2.676-5.07-2.676c-0.605,0-1.771,0.361-2.75,0.876
				c1.591-1.433,4.833-1.564,4.871-1.566l0.949-0.031l-0.892-0.331c-0.095-0.035-2.366-0.865-4.084-0.865
				c-0.59,0-1.056,0.099-1.381,0.302c-0.801,0.492-1.205,1.379-1.559,2.16l-0.015,0.038l-0.016-0.038
				c-0.209-0.462-0.469-1.04-0.847-1.507c5.946-2.445,13.468-3.909,21.643-3.909C48.21,8.382,55.7,9.832,61.632,12.254z
				 M11.959,15.774c0.098-0.011,0.181-0.017,0.219-0.019c0.136-0.003,0.177,0.019,0.066,0.088c-1.393,0.854-2.652,5.024-2.711,5.189
				l-0.241,0.68l0.54-0.477c0.041-0.035,3.588-3.134,6.276-3.958c-1.011,0.422-2.056,1.051-2.651,1.591
				c-0.555,0.506-0.917,1.334-1.154,2.203c-0.148,0.083-0.317,0.187-0.513,0.316l-6.525,4.604
				C5.419,22.18,7.883,18.654,11.959,15.774z M7.301,32.445l10.296-0.051c-0.167,3.745-0.156,6.091,0.047,7.724
				C13.002,38.093,9.396,35.456,7.301,32.445z M31.498,43.809l1.849-2.948c0.059-0.104,0.203-0.185,0.319-0.183l12.685,0.036
				c0.119,0.001,0.438,0.088,0.496,0.187l1.698,2.921c-2.71,0.352-5.546,0.538-8.466,0.538
				C37.117,44.359,34.244,44.168,31.498,43.809z M62.559,40.099c0.214-1.38,0.187-3.863-0.05-7.93l10.57-0.053
				C71.029,35.252,67.346,38.004,62.559,40.099z"/>
			<g>
				<g>
					<path fill="#C8A499" d="M28.308,22.13c-0.177,0.139-0.338,0.311-0.489,0.501l-0.333,12.986c0,0.186,0.455,0.341,0.798,0.341
						s0.798-0.155,0.798-0.341l-0.335-13.051C28.611,22.4,28.465,22.251,28.308,22.13z"/>
					<path fill="#C8A499" d="M33.561,24.517c-0.113,0.088-0.213,0.196-0.305,0.319l-0.198,7.649c0,0.111,0.265,0.201,0.465,0.201
						s0.466-0.09,0.466-0.201l-0.202-7.748C33.717,24.654,33.641,24.58,33.561,24.517z"/>
					<path fill="#C8A499" d="M19.29,18.597c-0.247,0.193-0.475,0.422-0.685,0.679l-0.611,21.068
						c0.705,0.297,1.433,0.578,2.179,0.846c0.418-1.249,0.326-5.274,0.326-5.274l-0.507-16.617
						C19.775,19.031,19.542,18.795,19.29,18.597z"/>
				</g>
				<path fill="#C8A499" d="M60.725,18.597c-0.281,0.22-0.538,0.489-0.775,0.793l-0.564,22c0.915-0.314,1.8-0.647,2.654-1.001
					l-0.54-20.999C61.263,19.086,61.007,18.816,60.725,18.597z"/>
				<path fill="#C8A499" d="M46.455,24.517c-0.077,0.06-0.145,0.128-0.212,0.203l-0.2,7.765c0,0.111,0.265,0.201,0.465,0.201
					c0.199,0,0.462-0.09,0.462-0.201l-0.194-7.626C46.678,24.726,46.572,24.61,46.455,24.517z"/>
				<path fill="#C8A499" d="M51.707,22.13c-0.152,0.116-0.293,0.257-0.422,0.417l-0.337,13.071c0,0.186,0.454,0.341,0.798,0.341
					c0.342,0,0.798-0.155,0.798-0.341l-0.333-12.964C52.059,22.452,51.891,22.273,51.707,22.13z"/>
			</g>
			<g>
				<path fill="#9B7E63" d="M33.885,32.588l0.005,0.013c0.043-0.026,0.078-0.056,0.092-0.087l0,0c0,0,0,0,0-0.002l0,0
					c0,0,0-0.002,0-0.004l0,0c0,0,0,0,0.001-0.001l0,0l0.001-0.002l0,0c0-0.001,0-0.001,0-0.001c0-0.003,0-0.003,0-0.003
					s0,0,0-0.002v-0.001c0,0,0,0,0-0.002v-0.002c0,0,0,0,0.002,0v-0.003l0,0c0,0,0,0,0-0.002l0,0h0.001l0,0c0-0.002,0-0.004,0-0.005
					l-0.202-7.748c-0.033-0.039-0.069-0.078-0.105-0.113C33.718,27.291,33.485,29.914,33.885,32.588z"/>
				<path fill="#9B7E63" d="M28.46,22.259c-0.398,1.871,0.067,3.975,0.088,5.854c0.014,1.427-0.002,2.85-0.072,4.278
					c-0.041,0.844,0.019,2.808-0.459,3.538c0.088,0.018,0.176,0.027,0.259,0.028l0,0c0.002,0,0.005,0,0.008,0
					c0.343,0,0.798-0.155,0.798-0.341l-0.335-13.051C28.656,22.455,28.561,22.351,28.46,22.259z"/>
				<path fill="#9B7E63" d="M19.492,18.77c-0.838,3.279,0.312,6.885,0.079,10.165c-0.149,2.119,0.038,4.222-0.044,6.341
					c-0.069,1.811-0.459,3.982,0.24,5.768c0.135,0.048,0.271,0.097,0.406,0.146c0.182-0.542,0.27-1.607,0.306-2.643
					c0.051-1.343,0.021-2.632,0.021-2.632l-0.501-16.46l-0.006-0.157C19.835,19.106,19.669,18.929,19.492,18.77z"/>
				<path fill="#9B7E63" d="M46.692,27.698c0.104,1.629-0.083,3.295-0.125,4.929c0,0.018,0.003,0.039,0.004,0.054
					c0.163-0.012,0.344-0.075,0.388-0.157c0.001,0,0.001,0,0.001,0v-0.001c0-0.001,0-0.001,0-0.001V32.52c0.001,0,0.001,0,0.001,0
					c0-0.002,0-0.002,0.001-0.002h0c0,0,0,0,0-0.004l0,0c0,0,0.002,0,0.002-0.002l0,0l0,0c0.002-0.002,0.002-0.002,0.002-0.004l0,0
					c0-0.001,0-0.001,0-0.003l0,0c0,0,0.001,0,0.001-0.001c0,0,0,0,0-0.003l0,0c0,0,0,0,0-0.002v-0.001c0.001,0,0.001,0,0.001-0.002
					v-0.002l0,0c0,0,0-0.001,0-0.003h0.001l0,0c0-0.002,0-0.002,0-0.002l0,0l0,0c0-0.002,0-0.004,0-0.005l-0.194-7.626
					c-0.046-0.063-0.095-0.122-0.143-0.174C46.437,25.587,46.641,26.873,46.692,27.698z"/>
				<path fill="#9B7E63" d="M52.148,29.536c0.005,1.418-0.065,2.787-0.32,4.189c-0.113,0.611-0.163,1.577-0.876,1.768l-0.003,0.124
					c0,0.186,0.454,0.341,0.798,0.341c0.342,0,0.798-0.155,0.798-0.341l-0.333-12.964c-0.057-0.074-0.117-0.146-0.177-0.214
					C51.889,24.571,52.137,27.766,52.148,29.536z"/>
				<path fill="#9B7E63" d="M60.991,28.952c0.102,1.922-0.068,3.791-0.063,5.7c0.004,1.817-0.113,4.326-0.337,6.308
					c0.491-0.184,0.976-0.377,1.449-0.571l-0.54-20.999c-0.039-0.054-0.079-0.106-0.123-0.156
					C60.786,22.452,60.823,25.692,60.991,28.952z"/>
			</g>
			<g>
				<path fill="#008A52" d="M48.329,24.348l-0.031,0.043c0.117,0.076,0.217,0.153,0.297,0.225c0.58,0.526,0.587,2.012,0.587,2.074
					v0.25l-0.128-0.214c-0.008-0.015-0.572-0.96-1.216-1.672l-0.049,0.075l0.064,0.083c0.091,0.132,0.129,0.281,0.129,0.467
					c0,0.274-0.082,0.631-0.196,1.139l-0.146,0.63c0,0-0.085-0.763-0.344-1.54l-0.168,0.284c0.055,1.298,0.08,2.888,0.08,4.181
					c0,0.519-0.004,0.992-0.012,1.376c0.387,0,0.767,0.001,1.145,0.001c0.828,0,1.634-0.003,2.411-0.007
					c0.03-1.484,0.071-2.958,0.082-3.52c0.013-0.528,0.045-1.614,0.078-2.712c-0.243-0.198-0.492-0.401-0.743-0.604
					c-0.342,1.158-0.458,2.192-0.458,2.192l-0.243-1.07c-0.095-0.422-0.176-0.781-0.236-1.093
					C48.965,24.74,48.651,24.527,48.329,24.348"/>
				<path fill="#008A52" d="M59.211,27.021l-4.406,2.972c-0.211,0.141-0.63,0.284-0.887,0.286l0,0l0,0l1.5-1.106h-0.003
					l-0.045-0.037l-0.021-0.018c-0.027-0.021-0.079-0.064-0.154-0.125l-0.076-0.061c-0.321-0.262-0.931-0.757-1.729-1.405
					c-0.181-0.146-0.369-0.298-0.567-0.461l-0.002-0.002c0.098,1.352,0.175,2.916,0.197,4.649c2.296-0.042,4.233-0.123,5.588-0.272
					c0.175-0.021,0.351-0.037,0.526-0.054c0.008-0.411,0.015-0.832,0.022-1.271C59.169,29.034,59.19,28.002,59.211,27.021"/>
				<path fill="#008A52" d="M67.924,21.944c0.246,1.312,0.248,2.501,0.248,2.595v0.68l-0.348-0.585
					c-0.015-0.025-0.646-1.083-1.554-2.346l-1.58,1.057c-0.091,0.449-0.207,0.956-0.34,1.538l-0.391,1.726
					c0,0-0.123-1.077-0.454-2.472l-1.47,0.984l-0.003,0.001c0.173,2.328,0.31,4.331,0.418,6.047
					c0.873-0.029,1.722-0.041,2.543-0.041c1.264,0,2.458,0.026,3.555,0.057c1.058,0.023,2.131,0.055,3.096,0.055
					c0.749,0,1.433-0.019,1.999-0.07c0.792-1.484,1.229-3.04,1.253-4.649l-3.368-2.255l-3.2-2.139
					C68.209,22.044,68.07,21.986,67.924,21.944"/>
				<path fill="#008A52" d="M40.183,16.623h-0.002c0.002,0.003,2.819,6.774-1.353,11.257c-1.189,1.276-1.739,2.584-1.826,3.799
					c0.183,0.001,0.366,0.003,0.55,0.004c0.923,0.008,1.852,0.014,2.778,0.021l0,0c1.806,0.015,3.604,0.03,5.344,0.04
					c0.197-5.108,0.273-5.906,0.353-6.718c-0.579,0.933-0.747,2.421-0.747,2.421l-0.144-0.63c-0.116-0.508-0.198-0.865-0.198-1.139
					c0.001-0.187,0.04-0.335,0.131-0.467c0.204-0.29,0.431-0.533,0.617-0.71c-0.844,0.593-1.808,2.206-1.819,2.225l-0.127,0.214
					v-0.25v0c0-0.07,0.008-1.547,0.587-2.074c0.218-0.197,0.599-0.426,0.969-0.582c-0.983,0.302-2.281,1.435-2.295,1.449
					l-0.196,0.174l0.087-0.248c0.021-0.061,0.531-1.483,1.039-1.794c0.204-0.125,0.705-0.212,1.219-0.212l0.081,0.001
					c-0.102-0.008-0.21-0.013-0.33-0.013c-0.906,0-2.003,0.269-2.014,0.271l-0.337,0.084l0.281-0.206
					c0.055-0.04,1.337-0.976,1.855-0.976c0.22,0,0.646,0.132,1.004,0.321c-0.581-0.526-1.769-0.573-1.783-0.573l-0.345-0.011
					l0.324-0.123c0.035-0.012,0.867-0.316,1.496-0.316c0.215,0,0.385,0.038,0.504,0.111c0.139,0.084,0.245,0.201,0.331,0.334
					c0.071-0.146,0.146-0.296,0.226-0.442L40.183,16.623"/>
			</g>
		</g>
	</g>
	<g>
		<g>
			<g>
				<g>
					<g>
						<path fill="#005238" d="M80.531,31.734c-0.063,0.024-0.139-0.041-0.139-0.105V27.48c0-0.242,0.307-0.299,0.401-0.097
							c0.226,0.48,0.428,0.828,0.774,1.361c0.934,1.373,2.378,2.532,4.73,2.532c1.327,0,2.954-0.263,3.663-2.166
							c0.476-1.283,0.012-3.311-1.979-3.802c-0.142-0.04-3.201-0.771-4.448-1.139c-1.926-0.567-3.21-2.321-3.28-4.182
							c-0.075-2.068,1.144-4.938,5.799-4.938c1.45,0,2.396,0.279,4.45,0.279c0.693,0,1.1-0.122,1.294-0.205
							c0,0,0.132-0.042,0.147,0.096v3.548c0,0.197-0.266,0.284-0.383,0.106c-1.238-2.04-2.662-2.927-5.304-2.927
							c-2.625,0-3.296,2.004-3.311,2.927c-0.047,2.43,2.155,2.926,2.155,2.926c1.452,0.386,3.649,0.827,4.75,1.194
							c1.557,0.485,2.938,1.858,2.948,4.252c0.016,2.397-1.714,3.83-2.7,4.238c-0.973,0.423-2.219,0.629-3.74,0.629
							c-2.194,0-3.943-0.499-5.081-0.499C80.881,31.614,80.66,31.687,80.531,31.734z"/>
					</g>
				</g>
				<path fill="#005238" d="M106.556,31.819c-1.046,0-10.136,0-12.121,0c-0.099,0-0.112-0.123-0.053-0.186
					c0.622-0.455,0.88-1.14,0.88-2.179c0-0.773,0-11.962,0-11.962c0-0.895-0.323-1.494-0.88-1.92
					c-0.077-0.055-0.038-0.181,0.069-0.181h11.719c0,0,0.11-0.007,0.111,0.102v2.533c0,0.179-0.218,0.283-0.359,0.131
					c-1.264-1.284-2.512-1.933-5.435-1.933c-0.248,0-1.174,0-1.606,0c-0.434,0-0.799,0.357-0.799,0.85c0,0,0,2.656,0,5.44
					c0.59,0,1.777,0,2.246,0c2.187,0,3.387-0.429,4.211-1.12c0.101-0.085,0.322-0.001,0.322,0.172v2.586
					c0,0.171-0.178,0.268-0.346,0.159c-0.855-0.574-2.279-0.913-4.214-0.913c-0.466,0-1.635,0-2.22,0c0,2.583,0,5.037,0,5.377
					c0,1.62,0.516,2.238,3.239,2.238c2.558,0,4.147-1.064,5.486-2.852c0.117-0.156,0.413-0.097,0.376,0.169l-0.516,3.397
					C106.668,31.729,106.638,31.825,106.556,31.819z"/>
				<path fill="#005238" d="M117.099,23.563c0.307-0.029,0.6-0.07,0.874-0.125c2.194-0.467,3.267-2.344,3.267-3.972
					c0-1.091-0.454-2.185-1.29-2.952c-0.959-0.884-1.955-1.123-3.265-1.123c-0.894,0-6.563,0.003-8.008,0
					c-0.111,0-0.126,0.135-0.065,0.181c0.556,0.428,0.881,1.026,0.881,1.92c0,0,0,11.189,0,11.962c0,1.037-0.26,1.724-0.881,2.179
					c-0.083,0.064-0.028,0.186,0.065,0.186h4.528c0.104,0,0.158-0.129,0.06-0.198c-0.609-0.454-0.862-1.138-0.862-2.166
					c0-0.346,0-2.915,0-5.639c0-0.128,0.095-0.205,0.207-0.205c0.156,0,0.306,0,0.428,0c0.454,0,0.762,0.125,1.134,0.598
					c0.353,0.449,5.216,6.878,5.707,7.53c0,0,0.043,0.059,0.097,0.054h3.814c0.197,0,0.301-0.264,0.11-0.39
					c-0.899-0.537-1.55-1.169-2.642-2.394c-0.471-0.529-3.893-4.869-4.218-5.284C117,23.678,117.011,23.579,117.099,23.563z
					 M117.769,21.863c-0.454,0.605-1.239,0.904-2.546,0.904c-0.373,0-1.826,0-2.616,0c-0.114,0-0.204-0.093-0.204-0.198
					c0-2.921,0-5.654,0-5.654c0-0.399,0.204-0.641,0.656-0.659c0.661-0.026,2.035-0.033,2.802,0.02
					c0.876,0.064,1.518,0.375,1.927,0.972c0,0,0.683,0.868,0.717,2.134C118.539,20.649,118.038,21.462,117.769,21.863z"/>
			</g>
		</g>
	</g>
</g>
</svg>
