<?xml version="1.0" encoding="utf-8"?>
<!-- Generator: Adobe Illustrator 16.0.0, SVG Export Plug-In . SVG Version: 6.00 Build 0)  -->
<!DOCTYPE svg PUBLIC "-//W3C//DTD SVG 1.1//EN" "http://www.w3.org/Graphics/SVG/1.1/DTD/svg11.dtd">
<svg version="1.1" id="Layer_1" xmlns="http://www.w3.org/2000/svg" xmlns:xlink="http://www.w3.org/1999/xlink" x="0px" y="0px"
	 width="48px" height="48px" viewBox="232 232 48 48" enable-background="new 232 232 48 48" xml:space="preserve">
<path fill="#CBCBCB" d="M274.899,274.899c-1.468,1.468-3.846,1.468-5.313,0l-6.63-6.63c-2.726,1.748-5.947,2.791-9.426,2.791
	c-9.681,0-17.53-7.849-17.53-17.531c0-9.682,7.849-17.53,17.53-17.53c9.682,0,17.53,7.848,17.53,17.53
	c0,3.478-1.043,6.701-2.79,9.427l6.63,6.631C276.367,271.055,276.367,273.432,274.899,274.899z M253.53,241.008
	c-6.915,0-12.521,5.605-12.521,12.521c0,6.916,5.607,12.521,12.521,12.521c6.917,0,12.521-5.605,12.521-12.521
	C266.051,246.614,260.446,241.008,253.53,241.008z"/>
</svg>
